<?xml version="1.0" encoding="UTF-8" standalone="no"?>
<!-- Created with Inkscape (http://www.inkscape.org/) -->

<svg
   width="1000"
   height="1000"
   viewBox="0 0 1000 1000"
   version="1.1"
   id="svg1"
   xml:space="preserve"
   inkscape:version="1.3.2 (091e20e, 2023-11-25, custom)"
   sodipodi:docname="distortedface.svg"
   xmlns:inkscape="http://www.inkscape.org/namespaces/inkscape"
   xmlns:sodipodi="http://sodipodi.sourceforge.net/DTD/sodipodi-0.dtd"
   xmlns="http://www.w3.org/2000/svg"
   xmlns:svg="http://www.w3.org/2000/svg"><sodipodi:namedview
     id="namedview1"
     pagecolor="#ffffff"
     bordercolor="#000000"
     borderopacity="0.25"
     inkscape:showpageshadow="2"
     inkscape:pageopacity="0.0"
     inkscape:pagecheckerboard="0"
     inkscape:deskcolor="#d1d1d1"
     inkscape:document-units="px"
     inkscape:zoom="0.76308607"
     inkscape:cx="473.07901"
     inkscape:cy="501.25407"
     inkscape:window-width="1920"
     inkscape:window-height="991"
     inkscape:window-x="-9"
     inkscape:window-y="-9"
     inkscape:window-maximized="1"
     inkscape:current-layer="svg1" /><defs
     id="defs1" /><path
     id="path4"
     style="color:#000000;fill:#000000;-inkscape-stroke:none"
     d="M 505.66406 92.509766 C 495.69839 92.427186 485.73221 92.609196 475.78125 93.044922 C 445.73292 94.360658 415.84493 100.11607 386.91602 106.54297 C 377.33501 108.67152 367.63366 111.65335 358.53906 114.43359 C 353.33993 116.02299 349.96376 117.35469 345.92578 118.70898 C 334.38197 117.37076 317.97344 116.88549 308.5 118.06836 C 304.1 118.61775 296.675 119.55431 292 120.15039 C 278.93714 121.81595 257.93202 126.73462 243 131.625 C 211.6427 141.89481 173.44517 165.20809 167.87109 177.47852 C 165.60129 182.47512 165.57725 183.43468 167.67383 185.53125 C 170.38187 188.2393 175.11299 186.7173 186.78711 179.38477 C 217.90992 159.83647 252.77887 146.97389 287.70312 142.15625 C 288.87377 141.99476 290.4297 141.91923 291.68555 141.77539 C 251.09984 160.26292 213.67606 190.1086 183.83594 221.90234 C 173.71035 232.69084 158.47063 246.01534 152.32422 262.22656 L 151.45898 264.50977 C 150.15153 266.21455 148.7904 268.03656 147.36523 270.02344 C 136.66867 284.936 122.71563 308.09624 109.42578 341.29102 C 97.696779 370.58727 92.329902 393.14116 89.908203 409 L 89.681641 409 L 89.052734 413.27344 C 70.178428 541.6512 89.895706 675.25609 180.46289 775.35547 C 359.3288 973.04707 728.64288 947.98773 869.44922 718.61523 C 905.1356 660.48229 923.99065 591.91845 926.95508 524.21875 C 928.28228 493.90954 924.26399 464.87298 922.99609 435.7832 L 922.78711 431 L 921.51367 431 C 918.58177 411.35805 911.63809 376.63514 895.48438 336.28711 C 882.19454 303.09233 868.2415 279.93211 857.54492 265.01953 C 853.8424 259.85768 850.53681 255.72062 847.74805 252.43359 L 847.73828 252.40234 C 842.985 238.30629 829.70809 228.13439 821.74805 219.5918 C 801.65923 198.03295 778.4855 178.93583 753.70312 163.01172 C 741.4381 155.13075 726.63289 149.25472 716.06836 141.71484 C 719.88064 142.06245 723.67266 142.40612 726.52539 142.90039 C 763.17412 149.2502 796.13086 162.10649 826.37891 181.85547 C 832.8207 186.06132 835.05433 187 838.62891 187 L 843 187 L 842.97266 182.75 C 842.93138 176.44435 838.46532 171.13803 825.07812 161.48633 C 794.96998 139.7794 757.61456 125.66784 715.5 120.08984 C 696.07409 117.51692 683.30725 116.90445 671.88867 118 C 668.58165 118.31729 665.9678 118.62723 663.58594 118.94531 C 659.68158 117.57556 657.01813 116.5751 651.5918 114.75195 C 633.40244 108.64068 613.80827 104.10487 594.88672 100.69336 C 565.45046 95.386045 535.56108 92.757516 505.66406 92.509766 z M 505.58203 102.50781 C 534.94757 102.75138 564.27282 105.33525 593.11328 110.53516 C 611.69614 113.88558 630.85998 118.33655 648.4082 124.23242 C 649.33865 124.54504 649.58816 124.65543 650.46875 124.95312 C 650.35612 128.38873 654.9475 133.12128 662.10547 136.67188 L 668.5 139.84375 L 690.83789 140.38867 C 694.32572 141.93568 698.49348 143.70808 705.44922 146.36133 C 718.1923 157.46837 736.05646 163.55868 748.29688 171.42383 C 772.40474 186.91453 794.95026 205.50124 814.43164 226.4082 C 817.33199 229.52081 820.51463 232.74645 823.64453 235.94727 C 821.88937 234.85989 820.14451 233.7572 818.24805 232.80273 C 794.57654 220.88935 767.17229 213.95208 740.36523 215.83398 C 718.40681 217.37552 697.1599 224.16418 678.38672 235.67773 C 618.36233 272.49048 595.445 337.04239 600.0332 401.2832 C 604.62143 465.52404 636.26097 529.96791 685.93359 568.52539 C 714.5547 590.74202 749.63457 604.10638 784.42383 604.78516 C 819.21306 605.46393 853.78701 593.24684 880.34375 564.56641 C 891.15312 552.89255 899.08578 539.20461 905.29688 525.00391 C 910.44747 513.22783 913.95909 501.05428 916.38477 488.71094 C 917.04869 500.39275 917.47826 512.05637 916.96484 523.78125 C 914.0687 589.92196 895.60003 656.90378 860.92773 713.38477 C 724.04724 936.362 361.84628 960.92418 187.87695 768.64453 C 113.97019 686.95906 88.519198 582.16943 93.179688 475.88867 C 95.337427 490.69051 98.909188 505.40478 105.12109 519.96289 C 111.33982 534.537 119.19039 549.27647 130.42383 561.39844 C 183.88257 619.08576 270.02893 615.02778 329.08594 568.72266 C 373.8604 533.6161 404.6747 480.03169 414.48633 423.74414 C 424.29796 367.45659 412.96104 308.21434 372.9082 262.69727 C 345.27326 231.29222 298.87409 207.56982 255.29492 213.7793 C 230.99234 217.2421 207.11557 223.21283 185.39453 236.47852 C 183.83689 237.42979 182.44155 238.5335 180.97461 239.57422 C 184.43751 235.91443 187.94394 232.13957 191.12891 228.74609 C 222.03026 195.82165 261.29354 164.94684 302.92188 147.61523 L 306 146.33398 L 306 145.31055 C 311.50904 142.90789 314.02741 141.94883 318.19922 140.16406 C 319.34901 140.14279 320.32612 140.06258 321.5 140.05078 C 341.33579 139.85147 341.55018 139.82654 347.62109 136.93555 C 355.53068 133.16896 360.16041 128.10373 360.05273 124.47656 C 360.60761 124.30565 360.88649 124.17366 361.46094 123.99805 C 370.56181 121.21586 380.04323 118.31321 389.08398 116.30469 C 417.82075 109.92046 447.15752 104.30765 476.21875 103.03516 C 485.99976 102.60687 495.79352 102.42662 505.58203 102.50781 z M 271.51758 222.85352 C 306.4285 223.76304 343.02522 243.8728 365.40234 269.30273 C 403.2347 312.29638 414.02074 368.18172 404.63477 422.02734 C 395.24879 475.87299 365.54428 527.42822 322.91406 560.85352 C 267.32536 604.43922 187.42019 608.19223 137.75781 554.60156 C 127.70275 543.75117 120.29556 530.04521 114.31836 516.03711 C 100.45462 483.54632 99.996075 449.59694 100 414 L 100 409.16016 C 102.40205 394.14643 107.58747 372.78674 118.70898 345.00781 C 131.69787 312.56477 145.25274 290.12683 155.49219 275.85156 C 158.28606 271.95651 160.78294 268.73982 162.98242 266.04297 C 173.317 259.40415 181.62233 250.49794 190.60547 245.01172 C 210.68183 232.75049 233.08859 227.04472 256.70508 223.67969 C 261.57717 222.98548 266.5303 222.72358 271.51758 222.85352 z M 750.33789 225.53906 C 772.06357 225.76732 794.2518 231.92229 813.75195 241.73633 C 821.59373 245.68293 829.26336 252.86373 838.98242 257.52734 C 841.75258 260.72316 845.27108 265.0663 849.41797 270.84766 C 859.65741 285.1229 873.21033 307.56087 886.19922 340.00391 C 901.62417 378.53168 908.46607 411.73846 911.42969 431 L 911 431 L 911 436 C 911 465.2433 907.74887 494.44214 896.13477 520.99609 C 890.23212 534.49158 882.82193 547.17233 873.00586 557.77344 C 848.41096 584.33514 816.9684 595.41827 784.61914 594.78711 C 752.26988 594.15594 719.08889 581.60074 692.06641 560.625 C 645.05193 524.13087 614.3958 462.00761 610.00781 400.57031 C 605.61984 339.13301 627.04574 278.89384 683.61328 244.20117 C 701.01333 233.52974 720.70148 227.24007 741.06445 225.81055 C 744.14007 225.59463 747.23422 225.50645 750.33789 225.53906 z M 232.66797 316 C 198.44742 316 167.65437 343.96509 157.24023 384.5 C 154.57884 394.85896 153.86637 401.10651 153.91797 413.6543 C 154.02367 439.35417 164.87718 463.5624 181.38477 474.91992 C 189.41486 480.44477 192.90619 481.98632 204 484.90039 C 209.56534 486.36227 221.28662 486.13672 228.66406 484.42578 C 260.02226 477.15333 286.00849 447.36498 294.02539 409.5 C 295.85154 400.87487 295.59035 379.0625 293.56055 370.64453 C 285.512 337.26587 261.81426 316 232.66797 316 z M 779.5 318.27344 C 771.95042 318.63112 767.7847 319.39675 762.5 321.39844 C 749.09543 326.47566 736.72206 338.1507 729.83984 352.2168 C 726.57861 358.88222 725.17471 362.93831 722.08789 374.61523 C 719.57107 384.13593 720.88925 406.2719 724.84961 421 C 729.08832 436.76328 740.83796 456.14175 753.13477 467.64844 C 761.67709 475.64188 776.81942 483.77504 787.34375 486.02344 C 794.75965 487.60776 811.79272 486.48181 818.42578 483.96875 C 830.72107 479.31044 839.3923 472.54309 846.13672 462.33594 C 851.76671 453.81539 853.18194 450.72832 856.62109 439.48047 C 859.15113 431.20591 859.36847 429.16409 859.38477 413.5 C 859.40492 394.08239 857.75372 385.49121 850.96484 369.69727 C 845.0252 355.87903 841.23316 350.28972 830.5 339.52734 C 822.23665 331.24149 819.02385 328.76823 812 325.2832 C 800.28804 319.47208 791.98818 317.68178 779.5 318.27344 z M 412.18555 767.375 C 407.85986 767.44199 405.50335 767.7796 403.00391 768.41992 C 395.12316 770.43888 389.06891 773.39378 384.10742 777.64062 C 368.79933 790.74379 371.16118 813.45504 389.2207 826.79297 C 404.50732 838.08297 409.86769 838.90859 474 839.83984 C 525.11887 840.58212 538.6862 840.46279 571.2207 838.98633 C 590.79723 838.09793 594.91585 837.62605 600.98633 835.57227 C 613.51545 831.33337 623.69147 823.336 628.70703 813.78516 C 631.14028 809.15167 631.48223 807.39149 631.49023 799.5 C 631.49844 791.47901 631.20239 789.99246 628.75781 785.83398 C 623.66231 777.166 614.86114 771.33133 602.59375 768.48633 C 597.31673 767.2625 592.62911 767.18065 574.38281 767.99609 C 545.59425 769.28271 463.8765 769.25767 433.18164 767.95312 C 422.80665 767.51218 416.51123 767.30801 412.18555 767.375 z "
     inkscape:label="path1" /></svg>
