<?xml version="1.0" encoding="UTF-8" standalone="no"?>
<!-- Created with Inkscape (http://www.inkscape.org/) -->

<svg
   width="1000"
   height="1000"
   viewBox="0 0 1000 1000"
   version="1.1"
   id="svg1"
   xml:space="preserve"
   inkscape:version="1.3.2 (091e20e, 2023-11-25, custom)"
   sodipodi:docname="hairycreature.svg"
   xmlns:inkscape="http://www.inkscape.org/namespaces/inkscape"
   xmlns:sodipodi="http://sodipodi.sourceforge.net/DTD/sodipodi-0.dtd"
   xmlns="http://www.w3.org/2000/svg"
   xmlns:svg="http://www.w3.org/2000/svg"><sodipodi:namedview
     id="namedview1"
     pagecolor="#ffffff"
     bordercolor="#000000"
     borderopacity="0.25"
     inkscape:showpageshadow="2"
     inkscape:pageopacity="0.0"
     inkscape:pagecheckerboard="0"
     inkscape:deskcolor="#d1d1d1"
     inkscape:document-units="px"
     inkscape:zoom="0.53958333"
     inkscape:cx="292.81853"
     inkscape:cy="414.2085"
     inkscape:window-width="1920"
     inkscape:window-height="991"
     inkscape:window-x="-9"
     inkscape:window-y="-9"
     inkscape:window-maximized="1"
     inkscape:current-layer="svg1" /><defs
     id="defs1" /><path
     style="fill:#000000;stroke:none"
     d="m 413,59.424377 c -5.97806,0.784913 -14.561,-0.449401 -19.57098,3.584107 -3.11274,2.506042 -4.2222,6.795166 -7.44831,9.476868 -4.18411,3.478088 -9.13833,6.092041 -11.10186,11.518493 -2.40149,6.63678 -0.37952,14.140259 -2.81867,20.996155 -3.02951,8.51526 -8.97888,16.34149 -11.15741,25 -5.30551,21.08649 -4.55539,52.70789 -0.43442,74 2.90357,15.00195 13.88199,27.5578 13.40201,44 -0.34247,11.73083 -8.25091,21.41968 -11.89273,32 -2.75445,8.00238 -1.70389,17.38397 -5.41592,25 -2.90702,5.96429 -8.93723,9.85693 -11.41742,16 -3.80197,9.41687 -1.97785,21.18231 -6.59723,29.98535 -10.39978,19.81861 -36.08365,30.94507 -54.54321,40.83875 -5.45954,2.92614 -7.80137,8.80584 -13.0185,11.9483 -5.31454,3.20111 -12.24045,3.8573 -17.98535,6.2392 -8.15744,3.3822 -15.67416,8.50421 -24,11.44055 -13.92725,4.91186 -28.95416,3.78216 -43,6.9414 -5.62842,1.266 -9.88193,5.84766 -15,8.28003 -5.79688,2.75495 -12.28185,3.55994 -17.96065,6.60035 -11.19044,5.99133 -18.75834,19.16198 -28.24846,27.29626 -3.40547,2.91895 -8.88919,2.39435 -11.21836,6.5741 C 109.41527,484.60455 111,496.76935 111,505 c 0,6.77704 -1.69121,17.8418 3.08873,23.47144 4.23042,4.98248 15.78955,-1.08545 20.91127,-2.00696 7.10651,-1.27857 15.30023,1.20569 21.98534,-2.03626 12.45993,-6.04248 22.11198,-20.28821 35.01851,-25.6643 21.34606,-8.89151 40.83673,-6.87095 62.99615,-10.06409 9.75269,-1.40534 18.11237,-6.85126 28,-8.27161 15.05801,-2.16302 31.36743,-0.68597 46,-5.20215 8.08691,-2.49597 14.05841,-8.87689 22,-11.67822 8.42371,-2.97137 17.78683,-1.63415 26,-5.46295 9.06207,-4.22455 21.04428,-12.84424 27.90665,-20.10034 7.31155,-7.73102 9.92828,-23.60279 23.09259,-14.19519 1.73803,1.24206 3.36545,2.65405 4.78781,4.25073 6.43805,7.22717 7.06256,17.56732 11.34796,25.94525 7.54266,14.74591 22.47925,27.3634 12.55096,46.0108 -5.37909,10.10309 -22.96292,16.67566 -31.59646,24.33259 -20.57681,18.24908 -37.95648,40.18945 -52.9429,62.67126 -5.60379,8.40649 -12.21299,13.61316 -14.4784,24 -4.67505,21.43494 0.2974,41.56262 0.33179,63 0.0602,37.48621 -3.38007,76.69781 0.16977,114 2.11038,22.17627 21.36627,42.04865 12.76541,65 -7.14352,19.0625 -21.01837,30.94916 -36.75076,42.06555 -5.36579,3.79151 -8.50345,9.85236 -15.18442,11.67981 -13.70166,3.74793 -28.26031,-0.78619 -42,3.77777 -10.76117,3.57465 -20.86316,15.30609 -15.99152,27.47687 1.54349,3.85608 7.89536,15.56604 11.21991,17.72144 10.56638,6.85052 28.12683,2.42096 39.77161,2.28241 17.37061,-0.20661 34.68939,1.40557 52,0.9815 14.52545,-0.35583 29.48376,-2.57605 44,-1.94598 12.34946,0.53595 24.59393,0.96142 37,0.96063 4.54785,-3.1e-4 10.92657,0.7616 14.52777,-2.70294 2.22125,-2.1369 1.81622,-5.58905 2.87116,-8.29706 1.63501,-4.19708 5.10937,-7.58008 6.18133,-12 1.05841,-4.36389 -0.93109,-8.63983 -0.35187,-13 1.26386,-9.51404 9.79151,-15.38202 9.51233,-26 -0.51025,-19.4082 -11.25097,-35.90698 -11.72607,-55 -0.18689,-7.5119 -1.29212,-16.72888 0.77392,-24 2.09742,-7.38153 7.21753,-13.32111 8.74768,-21 C 478.75006,779.87177 477,762.37622 477,746 c 0,-10.10962 1.13489,-21.00079 -0.43903,-31 -1.82061,-11.56641 -10.1148,-24.35498 -0.34722,-34.8302 5.83886,-6.26196 13.44165,-14.30872 20.78625,-18.68756 4.14294,-2.47003 8.98035,-3.08563 13,-5.81098 10.86285,-7.36474 20.97375,-17.20751 35,-13.17742 12.07611,3.46978 9.78674,17.58172 15.46759,26.46679 13.203,20.6499 26.59375,36.96991 44.62189,53.9491 6.54272,6.16205 20.48791,16.82611 28.91052,19.46686 11.43195,3.58423 23.52179,3.46826 35,7.67663 21.20709,7.77539 45.71527,18.42017 63.98456,31.59571 8.00201,5.77093 15.54492,14.51873 23.01544,21.24615 10.44861,9.40924 22.11194,17.91943 28.68597,31.10492 4.15699,8.33765 5.50892,17.55011 10.1435,26 1.70819,3.11438 3.3678,6.49585 1.81329,10 -2.30914,5.20532 -7.37732,13.91693 -11.74768,17.58179 -7.89252,6.61847 -25.89099,14.64477 -22.5733,28.41357 1.31738,5.46716 7.10498,6.7229 11.67822,8.42902 12.53345,4.67584 26.86249,4.5556 40,2.24688 15.08417,-2.65075 37.76379,-25.6488 40.65973,-40.67126 2.26965,-11.77368 -1.69788,-24.8219 4.47992,-35.99615 3.19824,-5.78486 12.98474,-15.18567 18.0733,-19.57099 4.76288,-4.10461 10.09528,-2.92834 11.45758,-10.43359 2.54846,-14.04004 5.15375,-41.80902 -1.3233,-54.94062 -1.99091,-4.03643 -5.93158,-3.56805 -9.25775,-5.80017 C 873.34918,756.07739 869.02911,750.29828 865.28937,746 854.81732,733.96381 844.77759,722.63403 832,712.89893 826.06445,708.37671 818.77313,706.04138 813.01465,701.58179 793.96973,686.83276 775.88672,673.72546 754,662.81018 740.05933,655.85767 721.69513,659.62054 709.03937,650.21063 684.48157,631.95123 680.50763,599.28186 673.76776,572 c -2.84021,-11.49664 -7.6239,-24.93298 -5.04089,-37 1.21423,-5.67261 7.38855,-30.75128 15.18365,-29.0293 4.72443,1.04364 6.89276,8.5315 9.39038,12.0293 9.27735,12.99249 15.18335,24.95776 26.21302,36.6991 4.3872,4.67028 10.38733,5.76947 15.38116,9.40893 4.65033,3.38916 6.05853,9.32611 11.14502,12.35877 4.25183,2.53503 9.37268,2.7478 13.9599,4.40899 27.48804,9.95441 51.00104,8.08161 72.9599,-13.91595 5.67664,-5.68659 6.62897,-12.26471 10.31403,-18.95984 3.81604,-6.93311 10.49951,-11.66486 11.54089,-20 1.953,-15.63177 -6.68524,-19.69977 -17.81482,-28.11496 -5.43939,-4.11276 -14.73541,-9.63321 -21.98456,-7.10342 -12.00769,4.1904 -3.11194,21.57873 -11.24383,28.78473 -3.01447,2.6712 -7.38654,2.88409 -10.72766,0.69134 -4.10077,-2.69122 -5.03345,-7.64911 -8.2685,-11.07327 C 777.34479,503.31946 766.44,499.08755 761.37805,489 c -3.54205,-7.05865 -4.34277,-15.42145 -6.27392,-23 -1.67426,-6.57019 -5.79609,-12.25433 -6.80323,-19 -3.2558,-21.80688 -1.86718,-44.12366 -5.62573,-66 -1.84259,-10.72467 -10.13,-18.24414 -14.0625,-28 -2.72723,-6.76587 -1.9881,-14.50092 -5.52856,-20.99615 -6.784,-12.44556 -21.50757,-18.28785 -29.44678,-29.01929 C 684.08032,290.06628 677.42596,276.05548 668.21527,263 657.42804,247.7099 644.03564,237.14697 631.03552,223.96063 621.89484,214.68903 613.47375,203.62457 602.96063,195.78937 594.47742,189.46698 579.08075,181.44476 569,178.43982 c -6.02802,-1.79688 -13.34637,-0.99689 -19,-3.75769 -5.83771,-2.85071 -11.12628,-9.54059 -15.70367,-14.12116 C 524.91925,151.17737 527.85559,139.30609 521.4375,129 510.40552,111.28497 495.53363,94.147156 482.25,78 478.6153,73.581787 476.68445,64.147278 471.89124,61.57251 466.71301,58.790955 457.78479,59.028687 452,59.000793 c -12.76965,-0.06158 -26.33441,-1.23944 -39,0.423584 m 17,17.861145 c 17.76917,-2.096618 30.63184,3.458008 41.44214,17.729126 2.96643,3.916077 3.69018,8.987122 6.95141,12.699832 16.27985,18.53357 37.92359,40.87127 30.99769,68.28552 -2.50788,9.92657 -11.50397,14.57745 -14.22071,24 -2.95099,10.23523 1.40009,25.79504 -6.73462,34.36188 -5.89398,6.20715 -16.75604,6.04937 -23.3811,11.14813 -8.90027,6.84973 -13.67426,26.89276 -29.05481,25.9483 -4.50552,-0.27667 -9.31464,-5.41998 -13,-7.76312 -9.50891,-6.04578 -26.22293,-13.01007 -18.56635,-27.58563 2.92215,-5.56281 12.38755,-2.30731 17.56635,-2.07019 4.33447,0.19842 8.66287,2.17291 13,1.70831 8.30017,-0.8891 18.09906,-6.87585 26,-9.83252 4.04205,-1.51263 12.02887,-1.62768 13.05713,-6.95911 1.82422,-9.45843 -10.68933,-21.39849 -12.42365,-30.95605 -0.9721,-5.35718 1.18268,-16.05066 3.82178,-20.83026 2.77673,-5.02881 8.78076,-8.62177 7.91046,-15.16974 -3.4497,-25.95435 -29.92309,-9.86438 -43.36572,-9.10803 -10.02713,0.56415 -20.05423,-2.66181 -30,-1.79785 -4.21405,0.36609 -11.13693,7.33368 -14.58102,5.15435 -10.49207,-6.63916 0.57351,-20.39239 3.47607,-27.24847 5.45639,-12.88837 6.01779,-30.034607 20.1196,-37.721436 C 415.2308,77.890137 423.16019,78.09259 430,77.285522 M 388,171 c 1.86768,3.9776 10.6351,22.3642 0,22.3642 -9.82956,0 -4.70139,-17.79962 -3,-22.3642 h 3 m 54,16 c -1.97974,0.83893 -3.83252,1.66364 -6.00464,1.85571 C 414.33713,190.77081 436.61462,167.98688 442,187 m 89,8.32562 c 6.69562,-0.52655 13.58612,2.38568 20,3.92517 13.70703,3.29004 29.11597,6.91993 39.98535,16.85724 8.97681,8.20703 13.55029,19.69977 22.10803,27.68213 8.01154,7.4729 18.98133,12.03577 26.31635,20.25305 4.65546,5.2154 10.99072,11.67084 14.01849,17.95679 2.18903,4.54462 2.37958,9.57092 5.05091,14 4.93304,8.17889 12.08917,16.44928 18.03863,24 8.02838,10.18909 17.75684,19.815 24.40741,31 3.16071,5.3158 4.32111,11.64398 7.43823,17 3.35822,5.77026 9.78192,9.45929 11.83258,16 1.60163,5.10852 0.47156,10.74457 0.97376,16 1.10547,11.56909 2.80249,22.32654 2.85882,34 0.0884,18.31024 7.81592,34.41748 11.85877,52 1.80157,7.83521 5.83642,17.32718 -1.99536,23.34723 C 714.90533,523.94171 708.18256,492.48282 701.19598,483 c -6.36999,-8.64594 -6.77056,-18.21014 -10.28625,-28 -2.54852,-7.09674 -8.64215,-12.16541 -11.17133,-19 -2.04907,-5.53723 -0.97845,-13.08679 -1.87268,-19 -1.25232,-8.28076 -4.5888,-16.0343 -7.00384,-24 -3.24549,-10.7049 -2.12787,-23.51349 -10.96607,-31.78705 -3.7326,-3.4942 -8.73639,-4.53753 -12.80243,-7.46142 -3.78076,-2.71875 -5.6784,-7.0857 -9.27783,-9.95136 -6.09198,-4.8501 -15.7843,-8.3753 -22.81555,-11.89508 -5.76227,-2.88452 -16.31165,-4.7019 -19.97223,2.13886 -8.55945,15.99566 4.31342,27.94781 8.68829,41.95605 3.52759,11.29535 9.74402,18.77954 15.02466,29.00079 2.92237,5.65656 3.59223,12.74329 6.98694,17.99842 2.95227,4.57025 8.24298,7.10797 10.70368,12.01544 4.76074,9.49469 5.16003,21.10742 8.89349,30.98535 5.06592,13.40326 12.5191,23.64667 8.99463,39 -1.58875,6.92087 -6.6452,11.65454 -9.36499,18 -7.28272,16.99084 -13.84046,33.85535 -28.13892,46.60956 -11.07532,9.87909 -26.43768,15.3128 -38.8117,22.86963 -4.76581,2.91052 -7.2356,8.75891 -12.1883,11.12652 -7.94574,3.79846 -18.27014,2.0033 -26.81555,5.73145 -14.47156,6.3136 -27.9671,16.90198 -41,25.55786 -4.6955,3.11859 -10.29169,4.23621 -14.99921,7.23846 -4.71368,3.00617 -7.14917,7.74158 -11.18524,11.38739 -3.77307,3.40821 -8.91492,4.54773 -12.70752,7.86957 -4.69684,4.11383 -10.83746,13.2796 -14.21454,18.62421 -9.22778,14.60388 6.5506,28.24658 10.32178,40.98535 5.37921,18.17053 3.07013,43.40894 0.73071,62 -1.74102,13.83582 -12.24817,23.98407 -12.90661,39 -0.63031,14.37427 -1.80609,31.94592 1.35418,46 1.17896,5.24286 7.4806,9.74023 7.32483,15.07098 -0.17102,5.85212 -10.95489,9.09186 -15.71838,9.43366 -4.86945,0.34942 -10.18756,-0.95862 -15,-1.63501 -5.98798,-0.84168 -14.91241,-0.80658 -19.86652,-4.57257 -5.47369,-4.16095 -7.0205,-14.87158 -7.1304,-21.29706 -0.25,-14.61835 1.77548,-30.45087 -0.30322,-45 -1.81448,-12.69971 -12.55389,-20.19031 -14.39972,-33 C 377.3074,773.17084 379,757.97046 379,744 v -85 c 0,-14.33118 -2.91443,-32.41602 2.40201,-45.99615 2.12622,-5.4311 7.50229,-8.23151 10.63193,-13.00458 16.30856,-24.87268 36.06753,-44.75983 57.29089,-65.67053 11.60718,-11.43622 38.17621,-22.43827 41.85571,-39.32874 2.55304,-11.71954 -3.65326,-14.68451 -8.76385,-24 -4.56775,-8.32599 -7.71045,-16.79028 -12.80561,-25 -5.68133,-9.1543 -7.28216,-18.69586 -12.14422,-28 -2.7724,-5.30536 -8.10779,-8.60443 -10.74695,-14 -2.69537,-5.51044 -2.90595,-11.77045 -6.32947,-17 -7.60852,-11.62238 -20.84588,-18.13489 -28.68829,-29.08948 -10.44461,-14.58941 -7.91223,-44.92151 0.52548,-59.90973 8.17297,-14.51794 26.01383,-3.14502 38.77158,-7.72845 10.71515,-3.84961 18.55041,-19.15143 26.39044,-26.73993 4.7818,-4.62836 11.78619,-5.42828 16.3966,-10.57562 3.97724,-4.44037 10.18531,-13.18665 11.63044,-18.95679 1.24865,-4.9856 -1.52881,-9.97638 -0.80945,-15 1.9375,-13.53033 13.24182,-22.64014 26.39276,-23.67438 M 387,286 c 4.39667,8.76025 4.56061,21.29944 0,30 h -1 c -4.58499,-8.74707 -3.92819,-20.7403 -1,-30 h 2 m 1,41 c -6.23749,10.02832 1.50677,34.54083 7.85419,43.99615 2.82214,4.20398 8.41058,6.89356 9.69751,12.0077 3.12344,12.41229 -10.01117,26.28894 -15.77545,35.97766 -2.55253,4.29034 -7.01001,5.61358 -10.7616,8.5509 -3.61655,2.8316 -6.0278,7.03961 -10.0293,9.37811 -6.17154,3.60669 -14.29315,2.9477 -20.98535,5.17975 -8.81699,2.94067 -14.85016,10.35162 -24,12.48145 -15.4613,3.599 -32.1929,1.3023 -48,3.86657 -8.26157,1.34021 -14.43665,5.44861 -22,8.48767 -10.42172,4.18763 -38.87732,2.59046 -40.66281,-11.91131 -0.6759,-5.48981 5.4913,-7.37549 9.66281,-8.58637 11.02875,-3.20135 24.89426,-3.46734 33.71451,-11.33722 5.84668,-5.21667 12.79346,-5.65625 19.28549,-9.57019 22.78345,-13.73577 45.82034,-25.23962 66.16977,-42.85882 4.88028,-4.22553 11.43094,-7.25025 15.12729,-12.6767 6.59091,-9.6759 4.35003,-24.17682 8.31637,-34.9707 C 368.34106,327.59174 381.08389,325.39545 388,327 m 244,44 c 2.90863,1.1015 4.1532,2.45648 5.91125,5.04321 1.5896,2.33881 5.56434,5.98358 5.4676,8.99304 -0.23456,7.29566 -14.02131,2.57123 -12.94599,-6.03625 0.33728,-2.69965 0.91748,-5.36298 1.56714,-8 m -462,91.34027 c 15.95276,-2.268 21.39322,6.96094 12.95447,19.61652 -4.37219,6.55697 -11.93988,6.69232 -17.95061,10.74536 -4.91402,3.31354 -7.61894,9.22772 -14.00386,10.06946 C 138.23407,504.45456 133.2998,493.45706 138.98843,483 144.37918,473.09052 158.91745,463.91589 170,462.34027 m 582,66.27472 c 6.08936,-0.38177 14.52594,-0.23999 20,2.66357 8.1416,4.31836 13.34735,12.29078 23,14.3302 6.79236,1.43519 16.27319,-6.90063 21.72144,-2.85107 3.97827,2.95697 3.16705,9.32037 0.97534,13.13355 -2.16455,3.76586 -6.33509,3.79327 -9.65668,5.99841 -5.72241,3.79895 -7.32263,9.27795 -15.0401,9.73071 -10.41614,0.61102 -17.09338,-7.54724 -26,-11.07556 -6.039,-2.3924 -15.05511,-3.48523 -19.34723,-8.75855 -5.16504,-6.34582 -6.5152,-22.49023 4.34723,-23.17126 m -111,50.68518 c 7.33105,-1.05359 11.70508,1.28076 13.3302,8.69983 1.93897,8.85168 1.69867,18.28345 4.44452,26.99927 1.64935,5.23535 5.94086,8.26587 8.38965,13.00458 7.63684,14.77819 11.89599,25.2431 24.83563,36.82635 5.69397,5.09717 12.23846,10.53809 20,11.84418 9.07654,1.5274 18.35278,-1.02918 26.99921,3.32562 4.98742,2.51196 8.20892,7.24817 13.00464,10.04474 5.93579,3.46136 13.10302,3.49554 18.99615,7.0741 20.67688,12.55596 36.88916,29.52923 55.0401,44.49072 7.84747,6.46856 29.01654,18.65649 27.73535,30.39044 -2.09393,19.17731 -16.21026,13.88757 -27.44598,23.63812 -3.16138,2.74347 -3.81006,7.10456 -6.74768,9.92823 C 816.30255,808.71838 807.4433,810.33154 803,811.34723 795.43646,813.07617 789.0097,802.86987 784.71448,798 771.82178,783.38257 757.01611,768.37988 740,758.5293 c -14.5816,-8.44123 -29.98145,-14.01343 -45,-21.25232 -4.84589,-2.3357 -7.92322,-7.08472 -13,-9.01697 -13.33862,-5.07654 -28.46698,-4.7962 -42,-9.9668 -19.65826,-7.51086 -34.78949,-24.16455 -45.65894,-41.28936 -10.51171,-16.56122 -28.78503,-40.12482 -15.40356,-60.89509 5.11102,-7.9331 19.76752,-5.65747 27.02313,-11.50152 9.9585,-8.02118 22.18872,-23.46033 35.03937,-25.30707 m 222.07794,219.45142 c 7.52258,-2.00269 3.99475,12.48529 2.23383,15.24841 -7.20636,11.30792 -18.80689,19.99835 -23.58802,33 -4.15246,11.29205 0.7818,27.47394 -4.90277,37.90662 -2.90051,5.32318 -9.48761,5.38116 -13.43133,9.37115 -3.11731,3.15393 -4.52875,8.65216 -9.3935,9.76618 -3.32092,0.76055 -9.31225,-2.30408 -9.36419,-6.09797 -0.0649,-4.73931 7.63336,-10.60785 9.69446,-14.94598 3.06555,-6.45221 2.96142,-16.84839 3.82867,-24 1.61145,-13.28864 0.89954,-38.14709 13.84955,-46.14581 6.65747,-4.11212 15.26349,-1.79633 21.97992,-5.17206 3.79449,-1.90723 5.20154,-7.89447 9.09338,-8.93054 M 371,897.30481 c 13.32336,-2.1059 18.62268,7.15369 30,10.13885 9.39264,2.46448 23.92261,0.21991 31.86652,6.25928 5.07367,3.85724 12.06817,21.30383 3.11419,23.86341 -11.09265,3.17095 -23.73037,-4.08765 -34.98071,-3.45832 -7.98785,0.44684 -16.05902,4.12464 -24,5.45679 -18.03735,3.02594 -40.84033,5.3952 -59,3.0108 -7.85257,-1.03106 -29.81973,1.21662 -33.86343,-7.70526 -3.20292,-7.06677 10.84982,-8.25464 14.86343,-8.70367 7.34787,-0.82209 16.00476,-0.009 23,-2.4159 6.34103,-2.18219 11.19867,-7.60656 17,-10.875 5.09534,-2.87072 10.72012,-3.66021 15.99615,-5.98455 5.99833,-2.64264 9.11725,-8.49799 16.00385,-9.58643 z"
     id="path1" /></svg>
