<?xml version="1.0" encoding="UTF-8" standalone="no"?>
<!-- Created with Inkscape (http://www.inkscape.org/) -->

<svg
   width="1000"
   height="1000"
   viewBox="0 0 1000 1000"
   version="1.1"
   id="svg1"
   xml:space="preserve"
   inkscape:version="1.3.2 (091e20e, 2023-11-25, custom)"
   sodipodi:docname="orca.svg"
   xmlns:inkscape="http://www.inkscape.org/namespaces/inkscape"
   xmlns:sodipodi="http://sodipodi.sourceforge.net/DTD/sodipodi-0.dtd"
   xmlns="http://www.w3.org/2000/svg"
   xmlns:svg="http://www.w3.org/2000/svg"><sodipodi:namedview
     id="namedview1"
     pagecolor="#ffffff"
     bordercolor="#000000"
     borderopacity="0.25"
     inkscape:showpageshadow="2"
     inkscape:pageopacity="0.0"
     inkscape:pagecheckerboard="0"
     inkscape:deskcolor="#d1d1d1"
     inkscape:document-units="px"
     inkscape:zoom="0.53958333"
     inkscape:cx="459.6139"
     inkscape:cy="603.24325"
     inkscape:window-width="1920"
     inkscape:window-height="991"
     inkscape:window-x="-9"
     inkscape:window-y="-9"
     inkscape:window-maximized="1"
     inkscape:current-layer="svg1" /><defs
     id="defs1" /><path
     id="path2"
     style="fill:#000000"
     d="M 127.82227 90.009766 C 116.44958 90.004327 103.63715 90.487642 99.349609 91.083984 C 95.062066 91.680327 90.754592 92.596133 89.777344 93.119141 C 88.800096 93.642148 88 95.149647 88 96.46875 C 88 97.787853 86.537498 101.2193 84.75 104.09375 C 82.066107 108.40968 81.507815 110.29372 81.546875 114.91016 C 81.572888 117.98475 82.178445 123.19763 82.892578 126.49414 C 83.60671 129.79064 84.753926 133.56094 85.441406 134.87305 C 86.128887 136.18515 89.796328 139.33752 93.591797 141.87891 C 97.387265 144.42029 101.39419 147.94428 102.49609 149.70898 C 103.59799 151.47369 106.075 153.64483 108 154.5332 C 109.925 155.42157 113.02227 156.90231 114.88281 157.82422 C 116.74335 158.74614 120.98533 162.65 124.31055 166.5 C 127.63577 170.35 132.23072 174.96719 134.51953 176.75977 C 136.80833 178.55233 140.29232 182.37734 142.26172 185.25977 C 144.23113 188.14218 146.62284 192.16252 147.57812 194.19336 C 148.65259 196.47758 151.41277 199.32905 154.81445 201.67188 C 159.03979 204.58198 160.84268 206.65475 162.59766 210.62305 C 164.18468 214.21161 166.16138 216.65991 169.07617 218.64453 C 172.22411 220.7879 173.79766 222.85161 175.38477 226.91602 C 176.67272 230.21434 179.57737 234.51523 182.8125 237.91602 C 186.05604 241.32564 189.88808 247.00467 192.65234 252.5 C 195.29793 257.75939 198.63153 262.75128 200.67383 264.50977 C 203.33164 266.79823 204.40187 268.71426 205.14258 272.50977 C 205.67826 275.25472 206.47669 282.22501 206.91797 288 C 207.4633 295.13663 207.33589 300.74224 206.51758 305.5 C 205.85539 309.35 204.59946 313.85 203.72656 315.5 C 202.85366 317.15 200.6004 319.70251 198.7207 321.17188 C 196.35042 323.02473 194.41481 326.0525 192.40234 331.05078 C 190.80641 335.01456 188.35202 339.43705 186.94922 340.87891 C 185.54641 342.32076 182.50891 345.90296 180.19922 348.83984 C 177.88952 351.77673 176 354.83138 176 355.62891 C 176 356.42643 175.0934 358.85535 173.98633 361.02539 C 172.87925 363.19544 170.86064 365.70028 169.5 366.5918 C 168.04518 367.54503 165.18236 372.10485 162.55078 377.66016 C 160.08956 382.85584 156.20628 389.21941 153.91992 391.80273 C 151.63356 394.38606 148.87043 398.525 147.7793 401 C 146.68817 403.475 144.99957 407.075 144.02734 409 C 143.05512 410.925 140.45942 413.72782 138.25977 415.22852 C 134.76229 417.61465 133.84611 419.12055 130.95312 427.22852 C 129.13366 432.32781 125.98953 438.975 123.9668 442 C 121.94407 445.025 119.55037 448.93616 118.64844 450.69141 C 117.7465 452.44665 116.10511 457.7605 115 462.5 C 113.89489 467.2395 112.32228 472.40951 111.50586 473.98828 C 110.68945 475.56705 109.1076 477.14927 107.99023 477.50391 C 106.87287 477.85855 104.90464 480.25238 103.61523 482.82422 C 102.32582 485.39606 100.49222 491.03977 99.541016 495.36719 C 98.589812 499.6946 96.973774 505.66838 95.951172 508.64062 C 94.92857 511.61287 92.738281 515.94615 91.082031 518.27148 C 89.425783 520.59681 87.383375 525.16389 86.544922 528.41992 C 85.706469 531.67597 84.75796 537.30098 84.435547 540.91992 C 84.113135 544.53888 83.169345 551.1 82.339844 555.5 C 81.505326 559.92661 79.806851 565.06336 78.537109 567 C 77.275002 568.925 75.755832 572.53759 75.162109 575.02734 C 74.568386 577.5171 73.533597 586.74211 72.861328 595.52734 C 72.115999 605.26731 71.647716 631.59681 71.660156 663 C 71.673305 696.17691 72.113868 718.76946 72.900391 726.5 C 73.571889 733.09999 74.541061 740.115 75.054688 742.08789 C 75.63587 744.32025 76.881265 746.08098 78.349609 746.75 C 80.336095 747.65511 80.98061 749.22103 82.435547 756.66211 C 83.385979 761.52296 84.8582 768.56997 85.707031 772.32227 C 86.640377 776.44816 88.28575 780.40056 89.869141 782.32227 C 91.309154 784.06996 93.091079 786.13145 93.828125 786.9043 C 94.565171 787.67715 95.590572 789.42183 96.107422 790.78125 C 96.624271 792.14066 97.32745 796.56769 97.669922 800.61914 C 98.285618 807.90281 98.250473 808.04424 94.619141 813.24219 C 92.599263 816.13347 89.822331 820.04706 88.447266 821.9375 C 87.072199 823.82795 85.270515 827.87795 84.443359 830.9375 C 83.616203 833.99706 82.498774 838.14051 81.960938 840.14453 C 81.247924 842.80127 80.299625 843.95942 78.457031 844.42188 C 77.023086 844.78177 75.512205 846.15408 74.964844 847.59375 C 74.434298 848.98919 74.007525 855.16276 74.015625 861.31445 C 74.02483 868.29868 74.502042 873.43469 75.289062 874.99023 C 75.982268 876.36036 77.377426 877.64119 78.388672 877.83594 C 79.399919 878.03069 83.110193 881.07309 86.632812 884.5957 C 92.530219 890.49311 93.379242 891 97.359375 891 C 99.736775 891 103.86732 890.34255 106.53711 889.53906 C 111.05971 888.17795 111.60643 888.21211 114.5625 890.03906 C 116.30753 891.11755 118.58211 892.00938 119.61719 892.02148 C 120.65228 892.03356 123.35139 892.88493 125.61328 893.91211 C 127.87517 894.93929 133.08617 899.09044 137.19531 903.13867 C 141.30446 907.18691 145.96061 912.75 147.54102 915.5 C 149.12143 918.25 152.57098 922.54775 155.20703 925.05078 C 158.51318 928.1901 160 930.40037 160 932.17773 C 160 933.59485 160.64571 935.29176 161.43555 935.94727 C 162.22538 936.60277 164.13788 937.51982 165.68555 937.98438 C 167.23321 938.44894 173.45001 938.864 179.5 938.9082 C 185.54999 938.95241 192.13961 938.5329 194.14258 937.97656 C 196.14555 937.42021 198.32277 936.3163 198.98242 935.52148 C 199.67246 934.69004 200.15353 931.19239 200.11523 927.28711 C 200.07858 923.55386 199.38787 916.72263 198.58008 912.10547 C 197.39493 905.33146 196.54341 903.11108 194.16797 900.60547 C 192.54887 898.89764 190.55037 896.15 189.72656 894.5 C 188.90276 892.85 187.75513 889.025 187.17578 886 C 186.59643 882.975 185.60493 876.45 184.97266 871.5 C 184.3404 866.55 183.19755 860.31384 182.43359 857.64258 C 181.66158 854.94319 180.783 845.49461 180.45508 836.37109 C 179.90098 820.95503 179.98968 819.75152 181.93164 816.60938 C 183.06895 814.76917 184.00572 812.41789 184.01172 811.38281 C 184.01799 810.34772 185.35776 805.07082 186.99023 799.65625 C 188.9473 793.16509 190.95129 788.67899 192.87305 786.49023 C 194.47607 784.66449 196.28951 781.6518 196.90234 779.79492 C 197.51517 777.93804 198.74269 773.28677 199.62891 769.45898 C 200.51513 765.63119 201.53718 758.65994 201.90234 753.9668 C 202.4667 746.7135 202.99246 744.87633 205.40234 741.7168 C 206.96164 739.67245 208.52997 738 208.88867 738 C 209.24738 738 210.51963 736.0875 211.71484 733.75 C 212.91004 731.4125 214.16035 727.925 214.49414 726 C 214.82792 724.075 215.74279 717.13331 216.52539 710.57422 C 217.7787 700.07005 218.29085 698.22253 220.82031 695.07422 C 222.39978 693.10832 224.43576 690.05902 225.3457 688.29883 C 226.25565 686.53864 227.00858 683.83864 227.01758 682.29883 C 227.027 680.75902 227.85775 676.35 228.86328 672.5 C 229.86882 668.65 231.94137 663.025 233.46875 660 C 234.99613 656.975 238.1509 651.75644 240.48047 648.4043 C 242.81005 645.05215 245.50614 640.10214 246.4707 637.4043 C 247.43526 634.70645 248.79935 631.15 249.50195 629.5 C 250.20455 627.85 251.46457 624.925 252.30273 623 C 253.1409 621.075 256.90382 615.8402 260.66406 611.36719 C 264.42432 606.89417 268.98135 602.00085 270.79297 600.49219 C 272.60459 598.98353 274.94408 596.07017 275.99023 594.01953 C 277.0364 591.96888 280.6391 587.91211 283.99609 585.00391 C 287.35309 582.09569 291.44998 577.75206 293.10156 575.35156 C 294.75315 572.95107 297.7691 570.1209 299.80273 569.0625 C 301.83636 568.00411 305.41111 564.88675 307.74805 562.13477 C 310.08499 559.38278 313.77935 555.86497 315.95703 554.31641 C 318.1347 552.76784 321.11228 549.31981 322.57227 546.65625 C 324.27724 543.54575 326.75437 540.89084 329.5 539.23242 C 331.85112 537.81229 334.55148 535.33619 335.5 533.73047 C 336.44853 532.12474 339.91977 529.06984 343.21289 526.94141 C 346.506 524.81297 349.94198 522.81617 350.84961 522.50391 C 351.75723 522.19165 353.74062 520.13968 355.25781 517.94336 C 356.77499 515.74704 359.02499 513.55686 360.25781 513.07812 C 361.49062 512.5994 367.22501 510.52484 373 508.4668 C 378.77499 506.40876 384.82875 503.61378 386.45312 502.25586 C 388.07749 500.89794 391.6775 498.75294 394.45312 497.49023 C 397.22874 496.22754 402.36268 494.03803 405.86133 492.62305 C 409.35996 491.20807 414.18633 488.23907 416.58789 486.02539 C 418.98946 483.81171 421.45201 482 422.05859 482 C 422.66517 482 425.48688 480.49671 428.33008 478.6582 C 431.17329 476.81969 435.975 474.07284 439 472.55469 C 442.025 471.03655 445.85 468.54492 447.5 467.01758 C 449.15 465.49023 451.48225 463.73514 452.68359 463.11914 C 453.89136 462.49985 459.61832 462 465.49219 462 C 471.33479 462 478.10866 461.49676 480.54688 460.88281 C 483.87967 460.0436 485.49715 458.93121 487.0625 456.39844 C 488.32701 454.3524 490.98152 452.18411 493.82227 450.87695 C 497.19143 449.32665 500.8776 448.64631 507 448.44336 C 514.41272 448.19764 516.43168 447.7027 522.77734 444.58008 C 526.77938 442.61073 530.50769 441 531.0625 441 C 531.61731 441 533.24225 441.76706 534.67383 442.70508 C 536.10541 443.64309 538.4521 444.43058 539.88867 444.45508 C 541.87487 444.48894 542.92281 445.3638 544.26367 448.10547 C 545.53164 450.69812 546.30054 456.02663 547.00391 467.07422 C 547.54189 475.52397 548.66318 487.1765 549.49414 492.96875 L 551.00391 503.5 L 556.39844 508.5 C 559.36535 511.25 562.74625 515.40687 563.91016 517.73633 C 565.07408 520.06578 567.08836 522.66686 568.38672 523.51758 C 569.68508 524.3683 572.94098 525.31345 575.62305 525.61719 C 578.3051 525.92093 583.97449 525.72665 588.2207 525.18555 C 593.83024 524.47072 596.72866 523.55749 598.82227 521.84961 C 600.40705 520.5568 602.40829 518.29074 603.26953 516.8125 C 604.13077 515.33426 606.56023 513.24089 608.66797 512.16016 C 610.77571 511.07942 613.4638 509.13867 614.64062 507.84766 C 615.81745 506.55663 617.90744 503.25 619.28711 500.5 C 620.66677 497.75 623.18394 494.47967 624.88086 493.23242 C 626.57779 491.98517 628.70079 489.51017 629.59766 487.73242 C 630.49453 485.95467 632.24827 483.375 633.49414 482 C 634.74 480.625 636.26561 477.91053 636.88477 475.96875 C 637.50393 474.02696 640.20969 470.30555 642.89844 467.69727 C 645.58719 465.08897 648.99659 460.37648 650.47461 457.22656 C 651.95263 454.07665 655.0472 449.025 657.35156 446 C 659.65591 442.975 662.30094 438.83663 663.22852 436.80469 C 664.15609 434.77275 665.88925 428.92274 667.08008 423.80469 C 668.2709 418.68663 669.69758 413.63484 670.25 412.57812 C 670.80243 411.52141 672.52404 409.58923 674.07617 408.2832 C 675.62829 406.97718 678.13069 403.38688 679.63867 400.30469 C 681.14664 397.2225 683.4771 393.39832 684.81641 391.80664 C 686.1557 390.21496 689.10669 387.9798 691.375 386.83984 C 693.64332 385.69987 696.33723 384.03123 697.35938 383.13281 C 698.61524 382.02897 701.06899 381.5 704.92969 381.5 C 709.44654 381.5 711.48815 380.94139 714.67969 378.83008 C 716.89994 377.3613 723.0591 374.80119 728.36523 373.14258 C 733.67137 371.48398 739.35913 369.16867 741.00586 367.99609 C 742.65259 366.82352 744 365.03894 744 364.03125 C 744 362.66076 742.74824 361.8995 739.03125 361.00781 C 735.79028 360.23032 731.00828 360.05776 725.28125 360.51367 C 720.45178 360.89812 714.29438 361.61631 711.59766 362.10938 C 708.90093 362.60244 705.34363 363.68065 703.69336 364.50391 C 702.04309 365.32717 699.69245 366 698.4707 366 C 697.24895 366 694.88644 365.72768 693.2207 365.39453 C 691.04504 364.9594 690.06218 364.10479 689.72852 362.35938 C 689.40258 360.65433 690.09907 359.03545 692.0625 356.93359 C 693.60134 355.28627 695.58437 351.75638 696.4707 349.08789 C 697.35703 346.41941 698.85124 343.58231 699.79102 342.7832 C 700.7308 341.9841 702.9525 340.75528 704.72852 340.05273 C 706.50453 339.35018 709.20454 337.18348 710.72852 335.23828 C 712.25249 333.29309 714.31923 330.9181 715.32031 329.96094 C 716.32138 329.00378 719.02138 327.68888 721.32031 327.03906 C 723.61923 326.38924 726.44677 325.08286 727.60352 324.13672 C 728.76026 323.19059 730.23758 321.42387 730.88672 320.21094 C 731.53587 318.99801 733.84107 317.10053 736.00977 315.99414 C 738.58624 314.67972 744.38019 313.46719 752.72656 312.49414 C 759.75197 311.67509 767.075 310.53372 769 309.95703 C 770.925 309.38034 776.31885 308.49447 780.98633 307.99023 C 786.28796 307.41747 792.10473 307.43746 796.48633 308.04102 C 800.34384 308.57238 806.65 309.6672 810.5 310.47461 C 814.35 311.28203 821.90138 312.89138 827.28125 314.05078 C 836.29385 315.99307 837.39619 316.49462 841.28906 320.44336 C 844.61365 323.81567 846.67961 324.97913 850.98438 325.90234 C 853.99325 326.54763 858.30099 328.15857 860.55664 329.48047 C 862.81229 330.80237 865.85033 333.68703 867.30859 335.89062 C 868.76686 338.09421 870.25107 341.71877 870.60742 343.94727 C 871.09855 347.01862 870.92135 348.02023 869.87695 348.08203 C 869.11915 348.12683 852.97498 348.10842 834 348.04102 C 809.82888 347.95518 794.87295 348.37138 784.04297 349.43164 C 775.54114 350.26397 766.09113 351.68894 763.04297 352.59766 C 759.78447 353.56908 756.36686 355.44072 754.75 357.14062 C 753.2375 358.73081 752 360.6993 752 361.51562 C 752 362.33194 752.203 363 752.45117 363 C 752.69934 363 755.47541 363.66944 758.61914 364.48828 C 761.76287 365.30712 769.54738 366.63225 775.91797 367.43164 C 782.28856 368.23104 793.12501 369.17273 800 369.52539 C 809.43752 370.00949 815.07249 369.75522 823 368.48828 C 828.77499 367.56534 838.00001 365.7528 843.5 364.46094 C 848.99999 363.16908 858.2823 360.51273 864.12695 358.55664 C 873.45786 355.43376 875.96312 355 884.67969 355 C 893.32658 355 895.27039 354.66979 899.74609 352.43945 C 902.75977 350.93767 907.4626 347.1129 911.11914 343.18945 C 914.54804 339.51025 918.28527 336.25529 919.42578 335.95703 C 920.56629 335.65877 922.03522 334.30446 922.68945 332.94727 C 923.34367 331.59007 924.35252 327.55977 924.93164 323.99023 C 925.51077 320.4207 925.98473 310.29999 925.98438 301.5 C 925.98402 292.70001 925.52775 281.52232 924.9707 276.66016 C 924.41366 271.79799 923.27143 266.49115 922.43164 264.86719 C 921.59186 263.24323 919.90447 261.53328 918.68164 261.06836 C 917.45881 260.60344 915.94837 259.16028 915.32617 257.86133 C 914.70396 256.56238 913.17524 252.85168 911.92773 249.61523 C 910.22862 245.20718 908.80494 243.2278 906.25391 241.72266 C 903.94396 240.35975 902.09943 238.02259 900.52344 234.45898 C 898.8989 230.78562 896.63877 227.97208 893.00977 225.10352 C 890.15515 222.84707 887.41912 221 886.92969 221 C 886.44025 221 885.14723 219.24702 884.05469 217.10547 C 882.96216 214.96393 879.68934 211.17854 876.7832 208.69336 C 873.87706 206.20817 869.68211 202.44866 867.46094 200.33789 C 864.58162 197.60167 861.28077 195.81765 855.96094 194.12305 C 850.34766 192.33498 847.63304 190.82042 845 188.00586 C 843.075 185.94816 839.7 183.36062 837.5 182.25781 C 835.3 181.15499 831.025 179.52459 828 178.63281 C 824.71318 177.66384 819.6045 174.85169 815.30469 171.64648 C 808.68329 166.71071 807.25541 166.10435 797.39648 164.02539 C 791.50424 162.7829 785.29225 161.18353 783.5918 160.47266 C 781.89135 159.76178 778.7514 157.78954 776.61328 156.08984 C 774.47515 154.39016 772.59831 153 772.44336 153 C 772.28841 153 766.612 151.90313 759.83008 150.5625 C 753.04816 149.22188 741.64999 147.40945 734.5 146.53516 C 727.35001 145.66088 718.35 144.21475 714.5 143.32227 C 710.65 142.42979 705.25 140.68373 702.5 139.44141 C 699.75 138.19908 694.8 136.64794 691.5 135.99414 C 688.09035 135.31862 670.87481 134.52326 651.625 134.15234 C 632.99422 133.79335 603.74418 133.77233 586.625 134.10547 C 562.79497 134.5692 553.39042 135.1283 546.5 136.49023 C 541.55 137.46863 535.925 139.03705 534 139.97656 C 532.075 140.91607 526.9 142.4089 522.5 143.29297 C 518.1 144.17704 511.125 145.1754 507 145.51172 C 502.875 145.84805 494.77499 146.79361 489 147.61328 C 483.22501 148.43294 473.32499 150.25105 467 151.65234 C 459.61201 153.28916 453.7865 155.23124 450.70898 157.08398 C 448.07427 158.67016 443.57426 160.62719 440.70898 161.43359 C 437.84371 162.23999 431.22499 163.60874 426 164.47461 C 420.77501 165.34049 414.2212 166.50141 411.43555 167.05469 C 408.64989 167.60797 404.21226 169.20895 401.57422 170.61328 C 398.93618 172.01762 394.91498 173.82959 392.63867 174.63867 C 390.36237 175.44776 385.125 176.75985 381 177.55469 C 376.6241 178.39786 367.54215 178.9999 359.19727 179 C 349.59766 179.00011 342.54857 178.46658 337.75781 177.37695 C 331.67625 175.99373 329.87143 175.0499 325.56055 170.99805 C 321.63461 167.30801 318.82735 165.7108 313.03516 163.87109 C 306.94881 161.93795 304.75678 160.64065 301.16602 156.84375 C 297.84725 153.33447 294.6321 151.30276 288.11523 148.60156 C 281.82929 145.99608 278.36584 143.84816 275.4375 140.73633 C 272.93619 138.0783 269.7209 135.91086 266.95508 135.01953 C 264.50499 134.22995 259.88609 132.53789 256.69141 131.25977 C 253.1952 129.861 249.62372 127.50166 247.71875 125.33203 C 245.70334 123.0366 241.27558 120.1929 235.52734 117.50195 C 230.56271 115.17784 224.78344 111.88918 222.68555 110.19531 C 220.58765 108.50143 216.98764 106.44968 214.68555 105.63477 C 212.38345 104.81984 206.46918 103.21664 201.54297 102.07227 C 194.68117 100.47825 191.87439 99.303467 189.54297 97.050781 C 187.77075 95.338418 184.61452 93.690057 181.98438 93.103516 C 179.50032 92.549554 170.95031 91.629609 162.98438 91.058594 C 155.01844 90.487579 139.19495 90.015166 127.82227 90.009766 z M 732.31445 242.94141 C 742.50495 242.9911 746.21848 243.46987 755 245.87109 C 760.77499 247.45022 768.425 249.82337 772 251.14453 C 778.0552 253.38225 778.67107 253.8985 781 258.69531 C 782.375 261.52736 784.29768 264.71419 785.27344 265.77734 C 786.2492 266.84049 786.78705 268.39399 786.4668 269.22852 C 786.14656 270.06305 783.71159 271.92804 781.05664 273.37305 C 778.40169 274.81805 775.8408 275.92483 775.36523 275.83203 C 774.88966 275.73919 767.97499 275.34864 760 274.96484 C 752.02501 274.58105 742.21981 273.53398 738.21094 272.63867 C 734.20205 271.74336 729.66985 270.36406 728.13867 269.57227 C 726.6075 268.78047 724.82173 267.49202 724.17188 266.70898 C 723.52201 265.92595 721.08116 264.06441 718.74609 262.57422 C 716.41103 261.08404 713.77742 258.88413 712.89453 257.68359 C 712.01163 256.48306 710.99119 254.55733 710.62695 253.40625 C 710.18783 252.01854 710.67402 250.41181 712.07031 248.63672 C 713.22851 247.16431 715.51695 245.26662 717.1543 244.41992 C 719.37931 243.26931 723.20758 242.89701 732.31445 242.94141 z M 356.13281 421.2207 C 358.78709 421.35691 360.73458 421.72884 362.9375 422.38477 C 365.92808 423.27521 369.41558 424.98088 370.6875 426.17578 C 371.95942 427.37069 373 428.95869 373 429.70508 C 373 430.45147 373.63936 431.30909 374.42188 431.60938 C 375.20439 431.90965 376.51542 433.58317 377.33398 435.32812 C 378.15255 437.07308 379.12702 441.2 379.5 444.5 C 379.87298 447.8 380.58244 452.10154 381.07617 454.05859 C 381.56991 456.01566 383.08117 458.57799 384.43359 459.75391 C 385.78602 460.92984 388.15305 462.5379 389.69531 463.32617 C 391.23757 464.11444 393.85 465.05605 395.5 465.41797 C 397.15 465.77988 399.56518 466.88801 400.86719 467.88086 C 402.57147 469.18083 403.05178 470.26383 402.58008 471.75 C 402.20594 472.92884 400.15751 474.52069 397.80273 475.46289 C 395.5354 476.3701 391.67984 478.87258 389.23633 481.02344 C 386.79281 483.17431 382.34841 485.84846 379.35938 486.9668 C 376.37035 488.08514 372.965 489 371.79102 489 C 370.52484 489 368.20054 490.69606 366.07812 493.16992 C 364.11024 495.46364 361.08883 498.76007 359.36523 500.49414 C 356.94912 502.92495 354.43599 504.07002 348.38867 505.49414 C 342.69647 506.83464 339.99121 508.01455 338.52344 509.79883 C 337.41105 511.1511 335.54842 513.28587 334.38477 514.54102 C 333.22112 515.79616 329.93942 517.65076 327.0918 518.66211 C 323.14552 520.06365 320.64324 521.93864 316.57227 526.54688 C 313.6292 529.87833 309.41643 533.40983 307.18945 534.41406 C 304.21213 535.75665 302.52149 537.45717 300.76953 540.86914 C 298.96348 544.38644 297.2924 546.025 293.82031 547.68164 C 291.09457 548.98218 288.38182 551.26368 287.10352 553.33203 C 285.92423 555.24016 284.21834 557.08599 283.3125 557.43359 C 282.40666 557.78119 281.2759 557.67434 280.79883 557.19727 C 280.32176 556.7202 279.02991 552.5615 277.92969 547.95508 C 276.82948 543.34865 275.15874 538.72834 274.2168 537.6875 C 273.27485 536.64666 271.32965 535.1865 269.89258 534.44336 C 268.45551 533.70023 263.18775 532.78372 258.1875 532.40625 C 249.74762 531.76913 248.70985 531.90286 243.70312 534.27344 C 239.786 536.12811 237.8674 537.76027 236.69336 540.23438 C 235.6128 542.51148 233.36959 544.57007 229.92773 546.44336 C 225.76916 548.70674 224.4079 550.13556 222.8457 553.87305 C 221.78188 556.41816 220.54809 559.16774 220.10547 559.98438 C 219.66284 560.80102 217.34749 562.03502 214.95898 562.72656 C 212.57048 563.4181 210.16174 564.43787 209.60742 564.99219 C 209.0531 565.54651 207.41513 566 205.9668 566 C 204.51846 566 203.03268 565.70065 202.66602 565.33398 C 202.29935 564.96732 202 563.62118 202 562.34375 C 202 561.06632 202.86717 557.73846 203.92773 554.94727 C 204.98831 552.15607 207.75319 547.36002 210.07031 544.29102 C 212.38743 541.22201 214.85847 536.79831 215.5625 534.45898 C 216.26654 532.11965 217.55992 528.81619 218.4375 527.11914 C 219.31507 525.42209 221.3436 523.35562 222.94531 522.52734 C 224.54702 521.69907 226.14311 520.12686 226.49023 519.0332 C 226.83734 517.93955 228.69568 515.16005 230.62109 512.85547 C 232.54651 510.55089 234.83225 507.27733 235.70117 505.58203 C 236.57008 503.88672 239.45454 500.3521 242.10938 497.72656 C 245.13195 494.73735 247.3238 491.50873 247.97461 489.0918 C 248.54624 486.96892 249.69094 484.67238 250.51758 483.98633 C 251.34423 483.30027 253.92786 481.72977 256.25977 480.49609 C 259.43141 478.81816 261.36274 476.71154 263.92188 472.13867 C 265.84231 468.70709 268.25482 465.75149 269.42188 465.40039 C 270.5653 465.05639 272.7375 463.61729 274.25 462.20117 C 275.7625 460.78506 277 459.09519 277 458.44727 C 277 457.79934 277.94568 456.06711 279.10156 454.59766 C 280.25744 453.12819 283.78323 450.62353 286.9375 449.03125 C 290.09178 447.43898 294.11846 444.49024 295.88477 442.47852 C 297.80478 440.29174 301.3899 437.89698 304.79883 436.52344 C 307.93485 435.25986 312.525 433.89543 315 433.49219 C 318.53615 432.91607 320.35675 431.83493 323.5 428.44141 C 325.7 426.06623 328.66575 423.68297 330.08984 423.14648 C 331.51393 422.60999 338.26394 421.85546 345.08984 421.46875 C 350.11794 421.18389 353.47853 421.08449 356.13281 421.2207 z "
     inkscape:label="path1" /></svg>
