<?xml version="1.0" encoding="UTF-8" standalone="no"?>
<!-- Created with Inkscape (http://www.inkscape.org/) -->

<svg
   width="1000"
   height="1000"
   viewBox="0 0 1000 1000"
   version="1.1"
   id="svg1"
   xml:space="preserve"
   inkscape:version="1.3.2 (091e20e, 2023-11-25, custom)"
   sodipodi:docname="treasurechest.svg"
   xmlns:inkscape="http://www.inkscape.org/namespaces/inkscape"
   xmlns:sodipodi="http://sodipodi.sourceforge.net/DTD/sodipodi-0.dtd"
   xmlns="http://www.w3.org/2000/svg"
   xmlns:svg="http://www.w3.org/2000/svg"><sodipodi:namedview
     id="namedview1"
     pagecolor="#ffffff"
     bordercolor="#000000"
     borderopacity="0.25"
     inkscape:showpageshadow="2"
     inkscape:pageopacity="0.0"
     inkscape:pagecheckerboard="0"
     inkscape:deskcolor="#d1d1d1"
     inkscape:document-units="px"
     inkscape:zoom="0.53958333"
     inkscape:cx="292.81853"
     inkscape:cy="414.2085"
     inkscape:window-width="1920"
     inkscape:window-height="991"
     inkscape:window-x="-9"
     inkscape:window-y="-9"
     inkscape:window-maximized="1"
     inkscape:current-layer="svg1" /><defs
     id="defs1" /><path
     style="fill:#000000"
     d="m 634,964.39511 c -18.67791,-0.76125 -30.07756,-2.43106 -40.57596,-5.94353 C 582.9341,954.94193 563.99568,952 551.89262,952 c -3.0908,0 -7.84254,-0.42156 -10.55942,-0.93681 -2.71687,-0.51524 -12.56579,-1.4441 -21.88649,-2.06412 -9.32069,-0.62002 -21.22171,-2.02885 -26.44671,-3.13073 -16.61534,-3.50395 -33.05513,-5.66609 -48.5,-6.37865 -8.25,-0.38063 -18.825,-1.50572 -23.5,-2.5002 -4.675,-0.99449 -11.875,-2.09475 -16,-2.44503 -7.86827,-0.66815 -23.64311,-2.65552 -40.5,-5.10234 -5.5,-0.79834 -18.325,-2.11959 -28.5,-2.93611 -34.50609,-2.76904 -49.72756,-4.38071 -55.62172,-5.8893 -9.60026,-2.45715 -22.95412,-4.40692 -38.37828,-5.60354 -7.975,-0.61871 -18.1,-1.75312 -22.5,-2.52091 -4.4,-0.76779 -14.75,-1.69287 -23,-2.05572 -15.39783,-0.67724 -17.39573,-1.11184 -31.5,-6.85212 -11.77357,-4.7917 -15.15611,-6.98035 -26.06102,-16.86257 -9.06795,-8.21755 -11.74935,-11.37996 -16.80061,-19.81441 -4.77976,-7.98112 -6.1422,-11.20051 -6.65346,-15.72185 -0.35361,-3.12707 -1.47936,-9.28559 -2.50168,-13.68559 -1.55443,-6.69015 -1.95359,-13.89434 -2.43789,-44 -0.60287,-37.47695 -2.36981,-69.15102 -5.04854,-90.5 -0.86263,-6.875 -1.99271,-16.99496 -2.51129,-22.4888 -1.63654,-17.33762 -2.54122,-20.24915 -7.249675,-23.33158 -2.251231,-1.47379 -7.975152,-6.54782 -12.719824,-11.27563 -6.267616,-6.24534 -9.134274,-9.93706 -10.482873,-13.5 -2.033177,-5.37157 -3.966427,-8.83253 -6.649422,-11.90399 -0.960877,-1.1 -2.666049,-5.32355 -3.789272,-9.38568 -2.469751,-8.93182 -3.985969,-11.38948 -8.966145,-14.53333 -4.948069,-3.12358 -6.470665,-8.24181 -5.98316,-20.1125 0.300347,-7.31341 0.676284,-8.92919 2.356114,-10.12661 1.099311,-0.78361 3.573747,-2.5183 5.498747,-3.85487 1.925,-1.33657 5.080803,-3.55711 7.012894,-4.93454 2.278945,-1.62471 6.494102,-3.06269 12,-4.09373 8.262668,-1.54728 14.115972,-3.87595 22.667181,-9.01791 3.415455,-2.05376 6.296725,-2.69736 15.751585,-3.5185 13.89443,-1.2067 24.22471,-3.71048 32.45911,-7.86719 3.35705,-1.69463 8.63539,-4.02837 11.72966,-5.18608 3.09427,-1.15772 7.44971,-3.8228 9.67876,-5.92241 4.07962,-3.84272 9.41465,-5.69694 21.65243,-7.52544 5.60507,-0.83747 11.68907,-3.42185 15.55589,-6.60787 1.64587,-1.3561 6.09594,-3.90108 9.88905,-5.65553 3.7931,-1.75444 8.56253,-4.69501 10.59872,-6.53458 2.0362,-1.83958 6.44302,-4.80555 9.79295,-6.59104 7.37023,-3.92829 8.47945,-6.30227 7.56118,-16.18257 -0.58506,-6.29501 -1.1699,-7.68165 -6.84474,-16.22867 -4.19071,-6.31175 -6.42512,-10.7699 -6.88305,-13.73324 -1.10203,-7.13146 -3.71705,-14.14365 -6.68839,-17.93492 -1.76029,-2.24603 -3.97832,-7.70578 -6.04671,-14.88415 -1.79665,-6.23532 -4.28805,-12.73907 -5.53644,-14.45279 -4.12075,-5.65674 -6.10378,-10.04001 -7.29093,-16.11585 -1.52018,-7.78029 -2.76867,-11.04796 -6.22843,-16.30168 -4.34778,-6.6022 -5.40733,-9.08743 -7.33228,-17.19832 -1.72263,-7.2584 -2.96173,-10.12334 -7.96409,-18.41386 -1.29886,-2.15263 -3.61709,-8.65073 -5.15163,-14.44024 -1.91884,-7.23937 -3.75282,-11.79408 -5.87319,-14.58613 -3.74869,-4.93616 -4.88858,-7.82453 -6.97183,-17.66587 -1.10737,-5.23125 -2.98777,-9.90837 -6.02248,-14.97977 -4.06177,-6.78774 -6.30119,-13.53756 -7.98577,-24.06987 -0.32159,-2.01065 -2.3282,-6.2246 -4.45912,-9.36431 -2.13093,-3.13972 -4.39533,-7.79464 -5.032,-10.34426 -3.66515,-14.67761 -5.61156,-20.37201 -9.18534,-26.87257 -3.45254,-6.28 -4.10949,-8.51633 -4.96857,-16.91336 -1.11911,-10.93873 -0.0876,-20.42639 2.80711,-25.81855 0.99466,-1.85283 2.98844,-5.54283 4.43062,-8.2 1.44219,-2.65716 3.83803,-9.10621 5.3241,-14.33121 1.83991,-6.46907 3.59159,-10.45714 5.4904,-12.5 1.53364,-1.65 3.98936,-5.25693 5.45715,-8.01541 3.4325,-6.45085 12.50987,-15.890388 17.89975,-18.613902 2.31355,-1.16904 6.29084,-4.061543 8.83843,-6.427783 4.68155,-4.348301 6.42889,-5.034162 18.79232,-7.376293 3.53337,-0.669362 9.38337,-2.695232 13,-4.501934 8.90604,-4.449042 14.45386,-6.128226 28.5757,-8.649143 11.41355,-2.037453 13.14847,-2.087677 35.5,-1.02767 42.11299,1.997181 140.04865,3.445395 144.88721,2.142506 2.36173,-0.635949 6.16577,-2.829022 8.45343,-4.873497 2.28765,-2.044475 6.30384,-5.426996 8.92488,-7.516714 2.62103,-2.089717 5.41371,-5.052958 6.20594,-6.584978 0.79224,-1.532021 3.14776,-3.633672 5.23449,-4.670337 3.53963,-1.75845 6.50992,-1.878049 44.29405,-1.783494 22.275,0.05574 43.6157,0.437434 47.42377,0.848203 6.73697,0.726703 7.07421,0.899334 12.5,6.398649 3.06693,3.108488 7.03312,6.415148 8.81376,7.348132 2.22789,1.167321 4.0631,3.439945 5.88478,7.287398 3.04128,6.423272 10.10564,13.068721 15.37769,14.465792 1.925,0.510117 23.525,1.187917 48,1.506222 80.78615,1.050649 121.35421,2.980171 130.41828,6.203031 8.18889,2.911678 18.25189,5.426647 25.47264,6.366184 10.64069,1.384527 17.44122,3.806035 22.55391,8.03091 2.97314,2.456868 6.7172,4.307268 11.13466,5.503018 4.51794,1.22295 8.78542,3.35802 13.28792,6.64811 3.64793,2.66563 8.28223,5.34443 10.29846,5.95288 3.89089,1.17419 17.51817,13.52811 21.88511,19.84012 1.3318,1.925 3.63981,4.53118 5.12892,5.7915 1.4891,1.26033 3.6402,4.78448 4.78022,7.83145 2.84771,7.6112 4.84373,11.33329 8.05569,15.02192 3.04958,3.50214 5.05868,8.57738 7.34439,18.55282 0.95481,4.16704 2.88055,8.65426 5.09673,11.87601 3.22144,4.68316 5.50484,10.73659 8.5019,22.53912 0.57441,2.26205 2.16352,5.76197 3.53136,7.77759 4.23345,6.23833 5.75487,9.79726 8.07427,18.88742 1.3937,5.46216 3.76638,11.31702 6.28137,15.5 2.65121,4.40956 4.79714,9.81842 6.23765,15.72217 1.27532,5.22674 3.98232,12.35401 6.45675,17 2.34341,4.4 5.43151,11.825 6.86244,16.5 1.43093,4.675 4.19279,10.975 6.13747,14 3.27292,5.09113 4.53942,8.45188 7.4482,19.76438 0.65443,2.54514 2.86633,6.25712 5.48638,9.20715 3.28042,3.69358 4.59654,6.15409 5.20758,9.73563 0.44974,2.63606 0.81017,20.09284 0.80097,38.79284 -0.0193,39.34556 -0.50549,43.09321 -6.48633,50.00354 -3.11637,3.60068 -4.16524,5.92901 -5.5059,12.22224 -2.4316,11.41425 -3.12696,13.27309 -7.00456,18.72463 -1.93664,2.72273 -4.42777,7.99464 -5.53585,11.71537 -2.30356,7.73491 -6.00943,13.00564 -15.47063,22.00332 -6.48901,6.17109 -6.64064,6.43004 -6.04911,10.33033 0.33371,2.20031 2.45345,7.79875 4.71054,12.44098 l 4.1038,8.4404 -0.52822,10.0596 c -0.68693,13.08243 -2.50448,19.47507 -6.92984,24.37341 -2.37872,2.63295 -4.43303,6.64362 -6.29856,12.29677 -2.0747,6.28699 -3.82388,9.52921 -6.97987,12.93761 -2.84518,3.07274 -4.92296,6.68652 -6.40487,11.13968 l -2.1935,6.59147 0.3916,79.86033 c 0.4145,84.52893 0.22157,80.82198 5.17152,99.36032 2.86488,10.72945 1.19396,19.26874 -7.63163,39.00167 -5.4958,12.28792 -10.7924,19.26453 -21.89382,28.83823 -13.24201,11.41972 -15.25264,12.77545 -22.44804,15.13633 -3.85,1.26322 -8.72472,3.54752 -10.83271,5.07621 -2.10798,1.5287 -8.0593,4.45203 -13.22514,6.4963 -5.16583,2.04426 -11.09112,5.16236 -13.16729,6.9291 -5.01246,4.26539 -6.71897,5.08099 -13.58821,6.49424 -4.12794,0.84927 -8.04184,2.71862 -13.5,6.44786 -4.72725,3.22985 -10.38168,6.06784 -14.68665,7.3713 -3.85,1.1657 -8.55097,3.26532 -10.44659,4.66582 -1.89563,1.40049 -5.83437,3.43973 -8.75276,4.53164 -7.4929,2.80345 -17.17106,7.80772 -19.67564,10.17365 -3.09247,2.92127 -6.42503,4.44622 -12.55095,5.74321 -6.5394,1.38454 -10.64644,3.82109 -14.33064,8.50184 -1.66168,2.11116 -4.24344,3.93333 -6.5,4.5876 -3.75678,1.08926 -49.03166,2.06084 -65.24342,1.40011 z m 37.78984,-70.337 c 2.04059,-1.06804 5.4227,-3.54304 7.51581,-5.5 2.09311,-1.95696 4.37142,-3.55811 5.06291,-3.55811 0.69149,0 2.52969,1.32814 4.08489,2.95141 2.82175,2.94528 6.75664,4.38872 11.61432,4.2605 1.41228,-0.0373 6.13728,-2.43206 10.5,-5.32174 4.36273,-2.88968 10.63223,-6.09131 13.93223,-7.11475 3.3,-1.02343 14.55,-6.08133 25,-11.23977 10.45,-5.15844 21.475,-10.34345 24.5,-11.52225 6.15608,-2.39893 22.16131,-10.38349 26,-12.97068 1.375,-0.92671 4.75,-2.50758 7.5,-3.51305 5.2269,-1.91107 16.45523,-7.11082 40,-18.52368 7.7,-3.73242 15.60959,-7.29486 17.57687,-7.91652 1.96728,-0.62166 5.29701,-2.70588 7.3994,-4.6316 l 3.82252,-3.5013 -0.72574,-9.72828 C 875.17389,790.87773 874.50701,780.65 874.09108,773.5 c -0.77072,-13.24912 -1.80665,-17.24798 -6.70839,-25.89562 -2.41988,-4.26914 -2.26137,-5.51599 1.31638,-10.35477 4.91613,-6.6489 5.30093,-8.86306 5.30093,-30.50215 0,-17.69342 -0.25598,-21.04509 -1.98246,-25.95724 -1.09036,-3.10226 -2.27721,-8.14828 -2.63745,-11.21337 -0.56397,-4.79845 -0.26531,-6.44123 2.14913,-11.8213 3.59776,-8.0169 3.87498,-17.82146 0.70595,-24.96824 -2.70429,-6.0987 -4.86383,-6.63534 -15.49495,-3.85048 -7.67772,2.01121 -11.28586,3.86005 -17.86378,9.15359 -1.44297,1.16121 -6.84297,3.20691 -12,4.546 -6.91736,1.79618 -11.12336,3.60653 -16.03743,6.90286 -5.13458,3.44424 -8.45733,4.83452 -14.5,6.06696 -7.87336,1.60583 -13.70339,4.29497 -14.64796,6.75648 -0.77364,2.01607 -6.43061,4.34863 -14.71454,6.06728 -5.45018,1.13075 -8.96716,2.59541 -12.97651,5.40413 -7.75822,5.43497 -8.97337,5.97892 -17.18402,7.69229 -5.49322,1.1463 -8.93544,2.6362 -13.81598,5.97999 -4.78457,3.27803 -8.72742,5.00561 -14.93998,6.54602 -13.69401,3.39544 -15.87244,4.98519 -19.15045,13.97544 -1.19766,3.28467 -2.7677,5.97213 -3.48898,5.97213 -0.72129,0 -2.7985,-3.02948 -4.61601,-6.73218 -5.75603,-11.72635 -6.95312,-11.98079 -66.88843,-14.21693 -34.02203,-1.26934 -45.53195,-2.31794 -71.91615,-6.55188 -22.51803,-3.61352 -38.85229,-5.00823 -70.5,-6.01969 l -19,-0.60724 -7,3.56088 c -3.85,1.95848 -7.55393,3.56226 -8.23095,3.56396 -3.89846,0.01 -2.77657,15.5241 1.95269,27.00308 5.42411,13.16555 8.29514,33.34411 7.25634,51 -0.43686,7.425 -0.90662,15.73676 -1.04393,18.47057 -0.29793,5.93192 -2.01627,7.61678 -13.43415,13.17234 -4.125,2.00709 -8.94675,5.00653 -10.71501,6.66543 -2.23286,2.09476 -5.135,3.43903 -9.5,4.40039 -17.49307,3.85272 -46.76828,1.95119 -53.56772,-3.47942 -1.87948,-1.50112 -5.50975,-4.01588 -8.06726,-5.58835 -2.5575,-1.57247 -6.70992,-4.72247 -9.22759,-7 -2.51766,-2.27753 -8.01152,-6.61596 -12.20857,-9.64096 -4.35281,-3.13726 -8.14361,-6.71301 -8.82426,-8.32366 -1.57447,-3.72576 -0.40191,-35.65616 1.54721,-42.13261 0.76227,-2.53282 2.9754,-6.36446 4.91806,-8.51476 4.40375,-4.87442 5.31139,-9.26939 3.31837,-16.06822 -1.49403,-5.09661 -1.46826,-5.32153 1.44263,-12.59113 3.91907,-9.78741 4.18411,-15.84846 0.90246,-20.63784 -1.36493,-1.99203 -3.5236,-4.0966 -4.79705,-4.67683 -1.27346,-0.58022 -7.1317,-1.05595 -13.01832,-1.05716 -26.19184,-0.005 -64.56687,-3.29371 -72.19219,-6.18603 -1.36909,-0.5193 -9.46909,-2.07963 -18,-3.4674 -12.55986,-2.04319 -21.21823,-2.688 -45.51076,-3.38929 -16.5,-0.47634 -33.6,-1.15602 -38,-1.5104 -9.48957,-0.76431 -12.70993,0.22753 -15.52138,4.7804 -2.23627,3.62144 -2.08042,5.33833 1.22094,13.44977 2.07272,5.09266 2.0778,5.2753 0.32,11.5 -1.36645,4.8389 -1.76656,9.73231 -1.70276,20.82516 0.14306,24.87329 2.74003,35.58091 10.26885,42.33968 5.18006,4.65023 5.13378,7.38208 -0.22351,13.19405 -4.66959,5.06591 -4.44681,1.79693 -1.83773,26.96627 0.65396,6.30867 0.86321,15.76363 0.49064,22.16954 -0.71283,12.25631 -0.24359,14.04509 5.23146,19.94281 3.84315,4.13984 6.61364,4.87662 27.75349,7.38071 9.9,1.17269 22.5,2.76049 28,3.52846 5.5,0.76796 15.4,1.85769 22,2.42161 6.6,0.56393 14.7,1.73265 18,2.59715 7.17788,1.88039 23.04854,4.20251 37.54629,5.49358 5.80046,0.51655 12.77546,1.61467 15.5,2.44027 2.72454,0.82559 9.90371,1.98605 15.95371,2.5788 16.43595,1.61032 52.67448,5.57899 77,8.43268 6.6,0.77426 16.275,2.09162 21.5,2.92747 10.57998,1.69247 42.06885,5.70012 63.5,8.08176 7.7,0.8557 20.3,2.44598 28,3.53395 7.7,1.08798 19.85,2.45202 27,3.03121 7.15,0.57918 19.075,1.94642 26.5,3.0383 7.425,1.09188 24.075,2.86994 37,3.95124 12.925,1.08131 26.2,2.63277 29.5,3.4477 3.3,0.81493 13.40951,1.95844 22.46559,2.54114 9.05607,0.5827 16.66857,1.26244 16.91666,1.51054 0.2481,0.24809 3.76901,0.45108 7.82425,0.45108 5.35924,0 8.38658,-0.53042 11.08334,-1.94189 z M 682.9058,828.3865 c -0.75362,-0.90806 -4.75323,-3.32812 -8.88801,-5.37791 -4.13479,-2.04979 -9.30044,-4.69027 -11.47923,-5.86774 -2.8921,-1.56295 -5.72645,-2.14239 -10.5,-2.14654 -3.59621,-0.003 -14.3907,-1.58119 -23.98777,-3.5068 C 612.12769,808.29261 583.60651,805 571.85482,805 c -2.60523,0 -4.97069,-0.37847 -5.25658,-0.84104 -0.67692,-1.09528 44.74936,-2.64123 77.90176,-2.65117 24.64766,-0.007 26.2471,-0.12191 30.75074,-2.20189 3.08756,-1.42597 5.48524,-3.43898 6.84878,-5.75 1.15392,-1.95574 2.48461,-3.5559 2.9571,-3.5559 0.47249,0 2.05124,2.03428 3.50833,4.52061 1.64222,2.80225 4.36302,5.52495 7.15777,7.16278 l 4.50851,2.64217 6.63439,-1.6495 c 3.64891,-0.90723 11.58438,-2.0926 17.63438,-2.63415 6.05,-0.54156 12.55199,-1.44179 14.44887,-2.00051 2.57581,-0.7587 3.6478,-0.70266 4.23469,0.22137 2.55626,4.02473 -1.15203,6.30877 -15.0068,9.24307 -5.97317,1.26506 -13.06901,3.40439 -15.76853,4.75408 -2.69953,1.34968 -6.25823,2.77772 -7.90823,3.17342 -4.9403,1.18476 -13.21588,6.41681 -16.83239,10.64188 -3.07203,3.58898 -3.52068,3.80674 -4.76181,2.31128 z M 818,766.03518 C 818,764.4241 821.64453,763 825.76759,763 c 4.50063,0 5.67537,0.76134 4.10129,2.65799 C 828.58269,767.20776 818,767.54408 818,766.03518 Z M 682,752.31822 c -2.44961,-4.58175 -2.69625,-4.73863 -12.23738,-7.78448 -11.60642,-3.70516 -13.28607,-4.92541 -9.16475,-6.65811 15.46288,-6.50094 19.30756,-8.76557 21.92761,-12.91599 l 2.67741,-4.24129 3.64855,4.0465 c 5.73956,6.36555 13.55766,8.08006 17.28694,3.79101 2.99781,-3.44778 8.34981,-5.33138 21.57046,-7.59156 15.16507,-2.5926 15.80496,-2.56828 16.06806,0.61076 0.25948,3.1352 -1.18981,6.04037 -3.67749,7.37174 -1.02012,0.54595 -6.29731,1.95412 -11.72709,3.12928 -10.80181,2.33781 -13.85634,3.5913 -16.87232,6.92392 -2.55872,2.82736 -5.76439,4.40858 -12,5.91912 -6.63961,1.6084 -9.07039,3.31846 -11.50746,8.0955 -1.11825,2.19196 -2.36154,3.98408 -2.76286,3.98249 -0.40133,-0.002 -1.85468,-2.10709 -3.22968,-4.67889 z m -284.52679,10.63767 c 9.5099,-4.60306 10.10198,-5.14006 11.00674,-9.98276 0.5099,-2.72926 0.19282,-4.11941 -1.40203,-6.14694 -1.96762,-2.50142 -2.61607,-2.64722 -14.31943,-3.21958 -6.74217,-0.32973 -14.74016,-0.86162 -17.77331,-1.18198 -4.67071,-0.49331 -5.93347,-0.25315 -8.25,1.56904 -3.15995,2.48561 -3.59638,6.44027 -1.21825,11.03906 1.59978,3.09364 4.40263,4.87466 10.98307,6.97899 2.2,0.70352 5.07319,2.11369 6.38486,3.13371 3.38766,2.63439 5.17694,2.36585 14.58835,-2.18954 z m -18.15747,-25.10086 c 1.20134,-0.62973 3.75926,-2.81844 5.68426,-4.86378 l 3.5,-3.71882 8.09704,0.48342 8.09703,0.48341 3.78315,-3.78315 c 5.17052,-5.17052 8.18145,-12.24537 11.1241,-26.13854 2.50978,-11.84946 3.98216,-14.81415 8.14868,-16.40758 3.44603,-1.31789 3.10918,-7.80087 -0.69242,-13.3263 -1.61833,-2.35216 -3.24705,-5.49043 -3.61939,-6.97394 -0.37234,-1.48351 -2.48827,-4.1401 -4.70208,-5.90352 C 414.1813,654.07805 411.17124,651.06841 407.02824,646 l -2.86096,-3.5 -10.01298,-0.3415 c -7.17005,-0.24454 -11.60892,0.12245 -15.63397,1.29257 -4.9783,1.44723 -5.92966,2.16637 -8.32066,6.28963 -1.48482,2.56056 -4.73154,6.7322 -7.21493,9.27031 -3.5886,3.66768 -5.01972,6.2233 -6.97338,12.45276 -1.79783,5.7326 -3.47259,8.89388 -6.23474,11.76873 -4.30768,4.48343 -4.36331,4.72888 -2.13577,9.42308 1.19501,2.5183 3.21213,4.25101 7.42377,6.37704 l 5.78291,2.9192 -0.10221,5.27409 c -0.0787,4.06091 0.60671,6.65425 2.97971,11.27409 1.69506,3.3 3.38543,8.25 3.75637,11 0.9158,6.78924 2.80117,9.5 6.60739,9.5 1.67348,0 4.02561,-0.51524 5.22695,-1.14497 z m 7.63395,-30.41565 c -0.71236,-0.85834 -1.49818,-4.00834 -1.74627,-7 -0.53927,-6.50288 1.09864,-7.24598 5.20769,-2.36265 2.98005,3.54158 3.22132,5.57534 1.03219,8.70076 -1.84217,2.63007 -2.74928,2.76368 -4.49361,0.66189 z m -12.02741,-17.3186 c -2.97563,-2.43086 -1.59274,-4.45411 3.04439,-4.45411 3.61472,0 3.90982,0.23508 4.26177,3.3951 0.21864,1.96309 -0.23076,2.49665 -2.30616,2.73803 -1.46721,0.17064 -3.62126,-0.5527 -5,-1.67902 z M 701.1904,619.40709 c 9.42178,-3.34216 10.70487,-4.8632 7.19384,-8.52792 -3.32203,-3.46745 -5.57105,-4.26959 -17.98302,-6.41385 -11.46879,-1.98132 -14.36076,-1.66761 -23.20395,2.5171 l -6.30273,2.98253 -7.69698,-2.11164 c -8.36502,-2.29491 -21.06141,-2.71079 -27.19096,-0.89065 -4.86346,1.44417 -10.78883,1.22355 -15.5066,-0.57737 -2.34705,-0.89595 -9.47592,-1.81959 -17.25127,-2.23515 -11.72149,-0.62647 -13.50136,-0.95833 -15.41769,-2.87466 -1.87496,-1.87495 -1.98122,-2.38959 -0.78983,-3.82513 2.6071,-3.14137 5.61109,-3.47222 15.77634,-1.7376 l 9.79569,1.67156 10.44338,-3.84937 c 6.19794,-2.28452 11.40161,-4.87507 12.80054,-6.3725 2.27124,-2.43116 2.33239,-2.90838 1.6776,-13.09278 -0.37376,-5.81331 -1.10291,-12.21476 -1.62033,-14.22543 -1.51199,-5.87551 -8.60569,-15.64608 -12.9795,-17.87743 -4.55647,-2.32454 -6.11235,-2.39854 -11.43493,-0.5439 -8.16683,2.84571 -10.75052,2.89631 -14.59722,0.28587 -3.84015,-2.606 -7.78392,-3.1494 -31.62304,-4.35731 l -12.22026,-0.61918 -6.02974,-6.93701 C 533.71338,525.97992 531,522.19094 531,521.37531 c 0,-0.81563 1.575,-6.19047 3.5,-11.94408 5.2101,-15.57243 5.12433,-15.96282 -6.08787,-27.70796 C 521.11183,474.07596 515.4703,471 508.74494,471 c -1.92036,0 -3.96573,-1.06695 -6.05982,-3.16103 -3.15121,-3.15121 -3.20615,-3.16381 -17.67308,-4.05356 -21.7475,-1.33751 -30.5536,0.0115 -36.81871,5.64051 -2.03133,1.82507 -6.39333,4.68075 -9.69333,6.34596 -3.3,1.66521 -7.11555,4.22395 -8.479,5.6861 -1.36345,1.46214 -5.24756,3.97975 -8.63136,5.59469 -7.02043,3.35054 -8.79651,5.57257 -10.89552,13.63122 -2.57884,9.90084 -2.7044,9.30844 8.6011,40.5803 2.28116,6.30987 4.22982,9.82556 6.95852,12.55425 2.85487,2.85488 4.19935,5.36959 5.44883,10.19147 2.08325,8.03954 3.94743,11.68075 6.37453,12.45108 1.04447,0.3315 6.7869,0.77152 12.76097,0.97781 5.97406,0.2063 15.42415,0.85155 21.0002,1.4339 10.66339,1.11366 20.1677,0.27075 23.21668,-2.05902 0.90478,-0.69135 3.5475,-2.95725 5.87271,-5.03534 2.32521,-2.07809 4.93064,-3.77834 5.78983,-3.77834 2.80303,0 9.26716,3.88883 11.36776,6.83885 2.44496,3.43363 7.01835,4.796 19.11475,5.69413 12.41187,0.92155 17.31603,3.6987 18.35104,10.39195 1.88089,12.1633 -13.29985,17.34956 -26.4161,9.02464 L 523.5,596.5 l -43.5,0.33413 -43.5,0.33412 -2.12645,-2.33412 c -1.16955,-1.28377 -2.41277,-3.94345 -2.76272,-5.9104 -1.40135,-7.87655 -5.15153,-8.81027 -9.52631,-2.37186 -1.32851,1.95519 -3.29442,4.02528 -4.36869,4.60021 -2.40675,1.28806 -29.56557,3.35343 -32.94452,2.50537 -3.26056,-0.81835 -8.19007,-5.37349 -10.22144,-9.44518 -0.90214,-1.80825 -3.1432,-4.00443 -4.98014,-4.88041 -3.05088,-1.45486 -4.06371,-1.45586 -11.70481,-0.0116 -10.92008,2.0641 -54.96144,3.23011 -67.27712,1.78119 -11.65211,-1.37085 -18.27431,-3.58017 -19.23222,-6.41631 -0.85103,-2.51966 -0.72772,-7.02583 0.59342,-21.68518 1.18669,-13.16745 6.65436,-33.81547 10.93623,-41.29941 3.58403,-6.26423 3.45458,-7.13753 -1.79917,-12.13768 -6.67198,-6.34992 -3.27476,-8.15244 17.91394,-9.50493 15.42171,-0.98438 18.25025,-1.80768 22.69902,-6.60693 2.87011,-3.09623 3.74403,-3.45162 8.5,-3.45663 6.94,-0.007 12.5288,-1.61734 13.78921,-3.97243 2.4658,-4.60739 -0.15172,-11.14953 -5.20785,-13.01631 -8.49683,-3.13711 -56.8295,-1.38513 -60.40419,2.18956 C 276.63121,466.94022 272,482.06899 272,486.02433 c 0,1.44487 -1.0125,3.57067 -2.25,4.72399 C 267.36794,492.96833 249.47382,502 247.45744,502 c -2.14376,0 -6.47549,4.11505 -8.49148,8.06672 -1.08803,2.13272 -3.40639,5.50425 -5.15192,7.49229 -3.15007,3.58774 -3.1749,3.70138 -3.33842,15.27781 -0.18037,12.76926 0.34839,14.48291 5.89351,19.10031 3.26197,2.71623 4.57223,4.01884 8.71554,8.6647 1.42157,1.59399 4.45907,4.64394 6.75,6.77765 2.9933,2.78788 4.16533,4.67633 4.16533,6.71146 0,2.48404 -0.52214,2.97375 -4.25,3.98598 -2.45446,0.66647 -7.84108,0.95192 -12.75,0.67565 -7.66367,-0.43129 -9.31006,-0.91001 -16.73295,-4.86546 -10.15674,-5.41225 -10.98216,-7.07248 -9.23771,-18.58066 1.70035,-11.21731 -0.0343,-21.16858 -4.46186,-25.59611 C 207.23926,528.38212 205.07299,528 198.87139,528 c -11.27027,0 -15.93663,1.41755 -21.2794,6.46428 -2.74367,2.59164 -6.2362,4.73615 -8.95128,5.49632 C 162.40694,541.70595 158,544.5958 158,546.93825 c 0,2.58465 1.62454,6.30357 5.77396,13.21781 3.7575,6.26119 2.99324,6.11901 13.10177,2.43755 5.85266,-2.1315 6.66826,-2.04459 10.85213,1.15639 1.97693,1.5125 5.75897,3.6701 8.40453,4.79467 5.06428,2.15271 9.86761,5.76735 9.86761,7.42566 0,1.6459 -4.24632,3.79681 -9,4.55882 -2.475,0.39673 -5.625,1.17166 -7,1.72205 l -2.5,1.0007 3,0.92991 c 1.65,0.51145 7.275,1.33007 12.5,1.81916 5.225,0.48909 15.125,1.60269 22,2.47467 9.32814,1.18313 16.55997,1.42172 28.5,0.94027 10.59849,-0.42735 18.65225,-0.24032 23.85631,0.55402 6.04927,0.92335 10.21939,0.93062 18.13001,0.0316 8.55756,-0.97252 11.67184,-0.91512 18.64369,0.34359 4.60349,0.83113 10.84499,1.81511 13.86999,2.18663 3.025,0.37151 9.1,1.50613 13.5,2.52136 4.4,1.01523 10.925,2.12767 14.5,2.47209 3.575,0.34442 10.775,1.4564 16,2.47106 5.225,1.01466 16.925,2.1438 26,2.50919 14.26009,0.57417 17.65389,0.40383 25,-1.25482 9.70807,-2.19194 10.1945,-2.19167 19,0.0104 3.575,0.89401 13.25,2.11216 21.5,2.70701 17.30814,1.24796 31.48969,3.19308 44.26435,6.07123 2.34539,0.52842 6.49427,0.96076 9.21973,0.96076 2.72545,0 9.8065,0.72854 15.73565,1.61897 8.69713,1.30613 15.32133,1.5002 34.28027,1.00431 12.925,-0.33807 27.30484,-1.09222 31.95521,-1.67588 9.34721,-1.17316 11.35564,-0.88927 18.28626,2.58478 6.99768,3.50767 14.69618,4.53859 33.44392,4.47854 11.00564,-0.0352 18.88744,0.42687 22.81461,1.33763 10.07681,2.33695 19.33618,2.02221 27.6904,-0.94126 z M 483.25,548.33772 c -1.75974,-0.71007 -1.55551,-3.00651 0.33179,-3.73073 2.88092,-1.10552 10.15313,-0.63131 11.28795,0.73606 0.86566,1.04306 0.54746,1.60146 -1.42461,2.5 -2.56205,1.16734 -7.88768,1.42575 -10.19513,0.49467 z M 734.5,607 c 0.33992,-0.55 -0.28197,-1 -1.38197,-1 -1.1,0 -2.27811,0.45 -2.61803,1 -0.33992,0.55 0.28197,1 1.38197,1 1.1,0 2.27811,-0.45 2.61803,-1 z m 7.40059,-4.56981 c 2.78454,-2.34303 2.93324,-2.76219 1.68512,-4.75 -1.90665,-3.03661 -2.85289,-10.84725 -1.68595,-13.91654 0.71072,-1.86934 2.35112,-3.01839 6.07478,-4.25519 6.99376,-2.32296 8.19201,-4.47426 7.89035,-14.1661 -0.16463,-5.28911 0.53024,-11.47187 2.13431,-18.99048 2.0212,-9.47375 2.20185,-11.73748 1.20277,-15.07209 -2.3893,-7.97478 -7.61432,-12.66031 -24.59546,-22.05593 -9.80625,-5.42577 -21.06199,-7.59948 -36.10651,-6.97289 -10.7281,0.44681 -14.37499,1.67852 -18.25306,6.16485 -1.23919,1.43354 -4.503,3.99084 -7.25293,5.68288 -2.93269,1.80451 -5.24036,4.03465 -5.58155,5.39405 -0.83818,3.3396 -4.2883,6.16281 -9.0874,7.43617 -3.36312,0.89234 -5.57296,2.69167 -11.36448,9.25336 l -7.18954,8.14561 0.43215,8.58605 c 0.49634,9.86154 2.11958,13.82002 7.86836,19.18811 2.87575,2.68531 4.03262,4.69717 4.54557,7.90501 0.4061,2.53959 1.75249,5.43242 3.28547,7.05909 2.77743,2.94715 15.47479,7.93385 20.20155,7.93385 4.0007,0 24.89911,-3.64224 28.21096,-4.9167 4.6576,-1.79232 12.38489,-1.23296 20.50858,1.48458 9.16011,3.06425 13.50789,6.65821 12.92266,10.68212 -0.49634,3.4127 0.27298,3.44607 4.15425,0.18019 z m 27.16632,-2.4971 c 1.61386,-1.61386 1.81326,-2.37255 0.9097,-3.46128 -2.07611,-2.50155 -4.78352,-2.61047 -9.92365,-0.39925 -7.64667,3.28951 -6.74117,5.69994 2.19704,5.84849 3.53982,0.0588 5.2766,-0.44765 6.81691,-1.98796 z m 37.98906,-15.77733 C 809.84986,581.89341 809.078,579 805.68061,579 802.00012,579 797,581.04376 797,582.54814 c 0,3.41199 6.53707,4.45706 10.05597,1.60762 z M 133,578.8534 c 5.775,-0.58317 13.12141,-0.98423 16.32536,-0.89123 C 156.28875,578.16429 160,576.23381 160,572.40954 v -2.54435 l -7.63225,0.61277 c -7.00881,0.56272 -7.93987,0.4092 -11.39818,-1.8794 -2.07126,-1.37069 -5.06507,-4.42861 -6.65291,-6.79537 -5.58849,-8.32992 -16.03871,-8.91776 -24.19569,-1.36103 -2.54153,2.35451 -6.24612,5.03991 -8.23241,5.96757 -5.869611,2.74128 -7.588025,8.43063 -3.379317,11.18828 2.661617,1.74396 15.954317,3.48741 20.990757,2.75311 1.65,-0.24057 7.725,-0.91454 13.5,-1.49772 z m 702.54275,-4.80011 c 3.57437,-1.6207 7.8874,-3.93546 9.58453,-5.14392 2.34088,-1.66686 5.41338,-2.41745 12.7292,-3.10965 12.56955,-1.18931 17.80399,-3.63487 20.89352,-9.76161 4.30935,-8.5457 2.47951,-12.12154 -7.12063,-13.91504 -7.1681,-1.33915 -11.88594,0.2953 -18.09322,6.26819 -2.92006,2.80981 -6.82277,6.52637 -8.67268,8.25902 -1.84991,1.73266 -4.60942,4.7291 -6.13225,6.65875 -2.30748,2.92392 -3.63459,3.62754 -7.96546,4.22319 C 825.87598,568.20473 818,572.07945 818,573.81254 c 0,4.08337 8.80164,4.20416 17.54275,0.24075 z m -38.71278,-1.11025 c 6.63306,-1.42253 8.79278,-4.01892 10.63746,-12.7882 2.10022,-9.98412 1.97352,-13.66612 -0.55121,-16.01827 C 804.24943,541.65208 797.66334,540 790.4256,540 c -5.36402,0 -5.92966,0.24261 -9.90884,4.25 -4.64573,4.67866 -8.96766,14.45693 -7.74358,17.51965 1.30081,3.25469 6.67702,10.09847 8.72682,11.10901 2.68946,1.32588 9.318,1.35372 15.32997,0.0644 z m -406.47643,-3.81765 c 14.61111,-5.00219 15.93154,-6.71529 10.96301,-14.22323 -2.93419,-4.43387 -4.3695,-14.67225 -3.70129,-26.40216 0.40216,-7.05961 -1.11262,-15.55428 -3.67267,-20.59582 -1.36589,-2.68987 -3.41526,-4.38795 -8.13425,-6.73995 -3.46959,-1.72927 -8.55834,-4.46662 -11.30834,-6.083 -9.17428,-5.39239 -29.95398,-8.07523 -36.1539,-4.66777 -1.56536,0.86031 -4.6882,2.94865 -6.93965,4.64075 -2.52354,1.89659 -7.69626,4.10692 -13.48705,5.76308 -9.02747,2.58185 -9.51153,2.8669 -12.42228,7.31531 -1.66582,2.54582 -5.03683,6.16036 -7.49111,8.03231 -5.39871,4.11773 -6.03191,6.60866 -6.31314,24.83509 -0.17864,11.57744 -0.0146,12.81131 2.22327,16.71797 2.74184,4.78656 8.27594,7.91597 16.51701,9.33999 2.78677,0.48154 14.51685,1.34376 26.06685,1.91604 12.6836,0.62845 22.9801,1.6304 26,2.53006 7.16856,2.13558 17.16001,1.28232 27.85354,-2.37867 z M 614.02922,527.05912 C 618.50613,525.8185 624.45998,525 629.00739,525 c 7.4205,0 9.83149,-0.81946 13.79297,-4.68801 0.7152,-0.69842 5.38575,-3.37987 10.37901,-5.95879 l 9.07865,-4.68894 3.46266,-7.29136 3.46265,-7.29136 -1.09156,-11.96164 c -0.60035,-6.5789 -1.6541,-13.52332 -2.34166,-15.43204 -1.26881,-3.52232 -10.72316,-12.56279 -16.0199,-15.31861 -4.75677,-2.47487 -20.73486,-5.42048 -32.73021,-6.03392 -9.84136,-0.50327 -13.58209,-0.20418 -25.93592,2.07373 -16.07695,2.96442 -21.90231,5.11718 -27.06408,10.00153 -1.925,1.82154 -5.38608,4.34235 -7.69128,5.60179 -2.30521,1.25945 -4.64882,3.45939 -5.20802,4.88876 -1.50372,3.84366 -4.05714,14.36011 -3.64785,15.02397 0.19494,0.31619 0.89062,5.07489 1.54596,10.57489 0.8567,7.18992 2.21179,12.49601 4.82224,18.88234 3.17964,7.77883 4.25007,9.3411 8.61604,12.57494 l 4.98532,3.6926 19.58811,-0.26582 c 16.1279,-0.21886 20.90072,-0.62956 27.0187,-2.32494 z m 277.51434,-15.11383 c 3.77651,-1.87938 5.66983,-3.71816 8.18093,-7.94529 2.81691,-4.74192 3.26781,-6.4252 3.27137,-12.21249 0.005,-7.90814 -2.00192,-13.85879 -8.52794,-25.28751 -2.51248,-4.4 -5.73203,-12.05 -7.15456,-17 -1.42252,-4.95 -4.51394,-12.825 -6.86981,-17.5 -4.79494,-9.5151 -8.76834,-24.9074 -8.26253,-32.00767 l 0.31898,-4.47759 4.87784,-0.69276 c 5.92047,-0.84083 9.24246,-3.74143 13.16576,-11.49569 4.26779,-8.43515 4.45613,-14.8991 0.65907,-22.61995 -3.16603,-6.43772 -5.10624,-18.83303 -3.3667,-21.50861 0.46567,-0.71625 3.03479,-2.74125 5.70915,-4.5 8.57895,-5.64181 8.97306,-7.01072 8.83791,-30.69773 -0.0803,-14.07879 -0.64368,-23.6323 -1.79855,-30.5 -2.19072,-13.02772 -3.04714,-15.54901 -8.13947,-23.96222 -3.00443,-4.96373 -4.75443,-9.3954 -5.9382,-15.03778 -1.13169,-5.39413 -2.96391,-10.15426 -5.62491,-14.61358 -2.48322,-4.16139 -4.98413,-10.46467 -6.74499,-17 -2.94208,-10.91938 -4.36395,-14.21742 -8.53267,-19.79166 -1.40065,-1.87288 -3.29322,-5.69788 -4.20571,-8.5 C 858.27382,164.99931 848.68111,155 842.60054,155 c -4.18535,0 -8.36217,2.947 -10.00851,7.0616 -2.60875,6.51991 -4.5917,15.59694 -4.60568,21.08274 -0.0236,9.24992 -0.48617,9.98534 -5.85778,9.31294 -3.65254,-0.45721 -5.57748,-0.0921 -9.12857,1.73166 -4.39793,2.25864 -4.54713,2.49622 -6.57795,10.474 -1.14287,4.48962 -2.85627,9.35081 -3.80754,10.80265 -1.59168,2.42919 -2.1038,2.58632 -6.42206,1.97031 -6.38512,-0.91085 -9.31408,-3.93095 -12.04964,-12.42459 -1.8112,-5.6236 -2.97587,-7.5248 -5.94753,-9.70868 -2.0324,-1.49363 -6.40423,-5.26071 -9.71516,-8.3713 -4.73372,-4.44728 -7.29756,-6.01874 -12,-7.35518 -3.28907,-0.93476 -8.58783,-3.28685 -11.77502,-5.22685 -4.15642,-2.52996 -8.53669,-4.08739 -15.49191,-5.50825 C 717.45214,166.43843 708.5,163.04921 708.5,160.99918 c 0,-0.92108 2.82356,-2.60982 7.39604,-4.42349 4.55519,-1.80682 8.78032,-4.33066 11,-6.57073 5.51745,-5.56817 15.05941,-17.68866 18.74831,-23.81469 1.8204,-3.02308 4.85771,-6.59785 6.74956,-7.94392 1.89186,-1.34608 3.71623,-3.54906 4.05417,-4.89551 0.80759,-3.21771 -1.3396,-7.54387 -4.45719,-8.98032 -1.52854,-0.70429 -15.04714,-1.57999 -34.99089,-2.26662 -36.06364,-1.24161 -50.02616,-2.259426 -70,-5.102734 -16.99543,-2.419325 -42.20869,-4.681739 -61,-5.473597 -19.66826,-0.828813 -39.13966,-2.54243 -41.16991,-3.623236 -0.91846,-0.488939 -2.20007,-2.495342 -2.84802,-4.458674 C 540.63259,79.356692 538.02302,78 531.50748,78 c -5.05083,0 -7.84267,2.642703 -8.93326,8.456065 -0.4633,2.469605 -1.94098,4.52999 -5.11292,7.129162 C 515.00758,95.59586 513,97.784682 513,98.449275 c 0,0.664593 1.9125,2.072885 4.25,3.129535 3.80321,1.71922 4.21351,2.23657 3.90292,4.92119 -0.4368,3.77558 -1.58696,5.17062 -6.20568,7.52692 -2.98165,1.52112 -3.89659,2.71486 -4.785,6.24306 -1.3685,5.43481 -3.84889,7.74418 -9.06981,8.44445 -2.23453,0.29971 -4.57433,1.1613 -5.19954,1.91463 -0.62521,0.75333 -1.21241,4.40747 -1.3049,8.12032 -0.19997,8.02796 -1.32012,10.04497 -8.21604,14.79437 -6.56971,4.52473 -11.26695,5.3602 -15.98571,2.84326 l -3.53778,-1.88701 -1.92423,2.36078 C 463.8659,158.15922 463,159.83088 463,160.5756 c 0,2.18642 3.63513,3.50638 7.81554,2.83791 5.37168,-0.85897 9.29048,1.41239 13.08965,7.58682 1.71074,2.78031 4.11942,5.43814 5.35262,5.90629 2.37731,0.90247 98.27038,3.62063 172.87616,4.90029 l 44.63397,0.76558 5.86603,3.5695 c 3.22632,1.96322 8.70467,5.06104 12.17412,6.88404 7.05433,3.70665 17.15078,14.41729 20.19077,21.41903 0.96831,2.23022 3.13787,5.77056 4.82124,7.86744 2.90355,3.61676 4.78012,8.16259 7.09737,17.19273 0.56529,2.20287 3.03872,7.0669 5.49651,10.80896 2.8592,4.35321 4.89194,8.85349 5.6438,12.49477 2.12514,10.2922 4.84494,17.61764 8.37265,22.55071 2.12247,2.96802 3.92678,7.05521 4.63528,10.5 1.85961,9.0417 3.03681,12.44507 5.40984,15.64033 3.69626,4.97696 5.18017,8.52315 8.06497,19.27325 1.99455,7.43267 3.94376,12.08039 7.04949,16.80896 2.75354,4.19234 4.69966,8.57623 5.42777,12.22675 2.01138,10.08447 2.93025,12.82369 5.46445,16.29 3.8647,5.28619 6.52718,11.68218 8.49241,20.40104 2.29445,10.1795 2.63425,11.01926 6.78841,16.77673 2.49175,3.45344 3.95388,7.09839 5.27792,13.1573 1.73339,7.93212 5.78943,17.72508 7.87528,19.01421 1.72496,1.06608 4.96403,11.21625 6.61155,20.71839 0.89005,5.13335 2.32233,10.81832 3.18285,12.63326 1.617,3.41045 1.23803,6.44792 -2.83415,22.71576 -1.67473,6.69035 0.52725,10.12973 8.0651,12.59732 1.40712,0.46063 8.88762,0.71153 16.62333,0.55756 12.58953,-0.25059 14.58038,-0.53646 18.97863,-2.72524 z M 867.21928,393.15668 C 865.45437,392.03675 862,382.6393 862,378.95789 c 0,-3.78448 2.47511,-4.92722 5.06422,-2.33811 1.20011,1.20011 2.22468,4.28376 2.78729,8.38894 1.13993,8.31776 0.54373,10.16329 -2.63223,8.14796 z M 840.11367,226.89622 c -1.36512,-3.91599 -1.4573,-10.56581 -0.1576,-11.36907 1.90174,-1.17534 4.16979,4.15772 3.85225,9.05817 -0.36655,5.65703 -2.14123,6.76704 -3.69465,2.3109 z M 525.11669,101.07212 c -1.7369,-1.073462 -1.7698,-5.580242 -0.0558,-7.645463 C 527.21317,90.833298 537,93.360392 537,96.509504 c 0,2.593071 -9.29537,6.162046 -11.88331,4.562616 z M 407.56856,483.53571 c 0.91546,-1.39717 3.8484,-3.27927 6.77305,-4.34634 4.65661,-1.69898 5.45021,-2.45303 8.15839,-7.75177 2.86558,-5.60672 3.28315,-5.96674 9.31955,-8.03534 3.47575,-1.19109 8.84627,-3.90636 11.9345,-6.03394 5.52766,-3.80818 5.76367,-3.86956 15.18045,-3.94839 13.96439,-0.1169 32.13015,1.11627 36.19226,2.45689 2.41459,0.79689 3.97957,2.16687 4.95178,4.33479 1.79258,3.99722 3.25168,4.45817 5.85896,1.85089 C 507.67708,460.32292 508,458.74747 508,452 c 0,-9.51037 -0.67975,-10.47461 -10.53397,-14.94273 -3.61371,-1.63854 -8.62299,-4.78593 -11.13171,-6.99419 -5.6426,-4.96682 -8.48833,-5.59159 -24.83432,-5.4523 -15.13864,0.12899 -20.21573,1.28665 -26.79392,6.1094 -2.63665,1.93305 -8.26165,4.80011 -12.5,6.37124 -7.87264,2.91834 -10.41221,5.01621 -16.4115,13.55703 -1.48798,2.11835 -4.15032,5.75634 -5.91631,8.08443 -4.96662,6.54743 -5.35532,18.84835 -0.77941,24.66567 2.62715,3.33988 6.33188,3.39988 8.4697,0.13716 z M 269.59496,458.16354 C 276.21614,453.8618 284,445.89338 284,443.41696 c 0,-3.25758 -5.31101,-19.08953 -8.66134,-25.81919 -1.88994,-3.79623 -5.17203,-11.93619 -7.29354,-18.08881 -2.12151,-6.15261 -5.03773,-13.4441 -6.48048,-16.20332 -1.44276,-2.75921 -3.45873,-7.89425 -4.47995,-11.41119 -2.42534,-8.35259 -5.57937,-16.17604 -8.5979,-21.32677 -1.33603,-2.27977 -3.56862,-8.07711 -4.96131,-12.88299 -1.39268,-4.80587 -4.50257,-12.66346 -6.91086,-17.46132 -2.40829,-4.79785 -5.80951,-13.36308 -7.55827,-19.03385 -1.74876,-5.67076 -4.41143,-12.42076 -5.91704,-15 -3.29746,-5.64881 -4.38433,-8.40506 -7.17265,-18.18952 -1.17552,-4.125 -3.91503,-10.36419 -6.0878,-13.86487 -2.6458,-4.26281 -4.60061,-9.15306 -5.91899,-14.80725 -1.99619,-8.56108 -3.47133,-12.23125 -8.17034,-20.32788 -2.35948,-4.06549 -6.33583,-16.80555 -9.10764,-29.18046 -0.88043,-3.93074 -0.74946,-5.37235 0.81768,-9 2.91866,-6.75617 5.9589,-9.39461 13.68954,-11.88035 6.63799,-2.13439 7.97491,-2.21331 26.15324,-1.54383 10.53671,0.38805 33.55765,1.16199 51.15765,1.71986 57.87169,1.83438 73.94598,2.63194 78.22379,3.88123 2.32309,0.67844 5.28875,0.96623 6.59037,0.63955 2.9463,-0.73948 10.17145,-10.86068 11.16196,-15.636 0.39929,-1.925 2.04281,-5.58357 3.65227,-8.13016 1.60946,-2.54659 4.00252,-7.37634 5.3179,-10.73278 1.31538,-3.35645 3.95119,-8.02288 5.85736,-10.36985 1.90617,-2.34696 5.05519,-7.41721 6.99783,-11.26721 2.13989,-4.24091 5.73273,-9.15439 9.1153,-12.46584 3.29906,-3.2297 5.58322,-6.332153 5.58322,-7.58339 0,-1.164653 -1.4704,-3.818554 -3.26756,-5.89756 -3.22868,-3.73503 -3.35155,-3.778731 -10.32605,-3.672566 C 386.48757,88.046848 327.06424,84.32602 295,81.468405 c -22.95076,-2.045407 -45.52647,-2.328149 -49,-0.613683 -1.375,0.678672 -5.875,3.590715 -10,6.471206 -6.67569,4.661636 -7.89866,6.036649 -11.12721,12.510505 -1.99496,4.000287 -4.52982,8.261067 -5.63302,9.468407 -1.1032,1.20734 -2.67166,3.54516 -3.48546,5.19516 -2.83684,5.75176 -6.96633,22.00662 -6.83638,26.90997 0.13513,5.09861 -1.74003,8.28014 -6.41793,10.88913 -1.22806,0.68492 -11.15839,1.32493 -25.7282,1.65818 -28.4349,0.65037 -27.62727,0.2906 -30.40185,13.54305 l -1.67484,7.99967 3.13923,14.41001 c 2.65416,12.18336 3.74841,15.35103 7.08156,20.5 4.88304,7.54317 5.66142,9.38369 7.55375,17.86131 1.54281,6.9118 4.62884,14.05348 6.59882,15.271 1.72701,1.06735 4.48036,8.27341 6.30285,16.49577 1.13683,5.12898 3.21712,10.1654 6.50921,15.75892 3.55921,6.04738 5.25579,10.30187 6.41715,16.09211 1.151,5.73864 2.92992,10.22777 6.56575,16.56869 2.74285,4.78357 5.29998,10.54995 5.68252,12.81418 1.0907,6.45576 3.89296,13.78078 7.35589,19.22801 1.74823,2.75 3.86313,7.475 4.69976,10.5 4.15058,15.00714 5.6134,18.87911 8.82784,23.36656 2.43623,3.40105 3.9854,7.16527 5.14436,12.5 1.04066,4.79017 3.45158,10.98572 6.47269,16.63344 2.86547,5.35676 5.69937,12.53226 7.00065,17.72584 1.58931,6.34313 3.20284,10.0883 5.90896,13.71532 2.55769,3.42808 4.41431,7.58207 5.93286,13.27416 2.44458,9.16319 3.64009,11.27052 7.20176,12.6946 3.70613,1.48183 4.19159,1.35491 10.50424,-2.74638 z M 454.41761,177.6839 c 3.51162,-2.56776 -0.42289,-8.43191 -4.10078,-6.11195 -2.48769,1.56919 -3.71833,3.93938 -3.00736,5.79213 0.75512,1.96782 4.61675,2.14157 7.10814,0.31982 z"
     id="path1" /></svg>
