<?xml version="1.0" encoding="UTF-8" standalone="no"?>
<!-- Created with Inkscape (http://www.inkscape.org/) -->

<svg
   width="1000"
   height="1000"
   viewBox="0 0 1000 1000"
   version="1.1"
   id="svg1"
   xml:space="preserve"
   inkscape:version="1.3.2 (091e20e, 2023-11-25, custom)"
   sodipodi:docname="trombone.svg"
   xmlns:inkscape="http://www.inkscape.org/namespaces/inkscape"
   xmlns:sodipodi="http://sodipodi.sourceforge.net/DTD/sodipodi-0.dtd"
   xmlns="http://www.w3.org/2000/svg"
   xmlns:svg="http://www.w3.org/2000/svg"><sodipodi:namedview
     id="namedview1"
     pagecolor="#ffffff"
     bordercolor="#000000"
     borderopacity="0.25"
     inkscape:showpageshadow="2"
     inkscape:pageopacity="0.0"
     inkscape:pagecheckerboard="0"
     inkscape:deskcolor="#d1d1d1"
     inkscape:document-units="px"
     inkscape:zoom="0.53958333"
     inkscape:cx="292.81853"
     inkscape:cy="416.06177"
     inkscape:window-width="1920"
     inkscape:window-height="991"
     inkscape:window-x="-9"
     inkscape:window-y="-9"
     inkscape:window-maximized="1"
     inkscape:current-layer="svg1" /><defs
     id="defs1" /><path
     style="fill:#000000"
     d="m 554.04128,799.94273 c -9.00635,-0.73533 -16.87141,-2.72923 -29.01785,-7.35643 -6.78157,-2.58344 -27.95826,-13.25917 -30.10217,-15.1753 -0.86831,-0.77605 -2.02715,-1.411 -2.57521,-1.411 -0.54806,0 -3.57565,-2.00278 -6.72798,-4.45062 -3.15233,-2.44783 -6.60599,-4.72816 -7.67479,-5.06738 C 476.87448,766.14277 476,765.47587 476,765 c 0,-0.47587 -0.7875,-1.11947 -1.75,-1.43021 -0.9625,-0.31074 -3.3488,-2.02857 -5.30288,-3.81739 -1.95408,-1.78882 -5.32908,-4.59269 -7.5,-6.23082 -5.30004,-3.9993 -32.82235,-32.11598 -38.40665,-39.23608 -8.3117,-10.59758 -18.72748,-24.77151 -20.41831,-27.7855 -0.92564,-1.65 -2.4568,-4.19794 -3.40257,-5.66208 -6.47836,-10.02909 -17.18722,-31.64338 -20.7287,-41.83792 -5.35885,-15.426 -7.3643,-22.05852 -7.9623,-26.33338 -0.37188,-2.65835 -1.31794,-6.65243 -2.10237,-8.87572 C 367.38933,600.85204 367,594.72412 367,581.34289 c 0,-15.69198 -0.22824,-18.49324 -1.54804,-18.9997 -0.85143,-0.32672 -2.08893,0.0702 -2.75,0.88216 -0.66108,0.81191 -2.99846,2.78085 -5.19418,4.37542 -4.32045,3.13759 -53.50088,42.03235 -77.39363,61.2074 -3.63778,2.91949 -7.90046,6.29449 -9.47261,7.5 -1.57216,1.20551 -3.82216,2.97343 -5,3.92872 -9.57199,7.76333 -60.19984,47.85603 -64.14154,50.79433 -2.75,2.04996 -5.97461,4.56905 -7.16579,5.59799 -4.78526,4.13347 -7.18103,6.05243 -15.19079,12.16749 -4.59611,3.50892 -15.29635,11.90994 -23.77831,18.66893 -22.6081,18.01566 -34.50639,23.53304 -50.75104,23.53387 -14.42668,7.3e-4 -19.666987,-2.17233 -30.142357,-12.4995 -7.327343,-7.22368 -8.391723,-8.77168 -10.968452,-15.95218 -2.608365,-7.26866 -2.853092,-9.11666 -2.84719,-21.5 0.0068,-14.18497 1.881224,-23.99296 6.424085,-33.61354 1.055914,-2.23615 1.921727,-4.48615 1.924029,-5 0.0047,-1.0559 3.583752,-8.17684 6.752135,-13.43428 6.926724,-11.49383 15.893764,-22.42258 24.35579,-29.68409 8.18821,-7.02654 13.95758,-11.68691 15.78356,-12.74961 0.88238,-0.51353 4.85368,-3.43853 8.8251,-6.5 3.97142,-3.06146 10.72142,-8.1862 15,-11.38831 12.74623,-9.53933 24.2534,-18.2279 33.27923,-25.12771 12.69451,-9.70433 20.57998,-15.64824 25.93638,-19.55028 2.64248,-1.925 10.37531,-7.74345 17.18406,-12.92988 23.10464,-17.59949 32.34312,-24.56647 34.56999,-26.07012 1.2218,-0.825 12.85939,-9.6 25.8613,-19.5 13.0019,-9.9 25.18844,-19.125 27.08118,-20.5 12.20187,-8.86414 43.8644,-32.93538 50.989,-38.76405 1.16706,-0.95477 3.10984,-2.41095 4.31731,-3.23595 1.20747,-0.825 7.31547,-5.325 13.57333,-10 6.25787,-4.675 12.61684,-9.4 14.13106,-10.5 1.51421,-1.1 7.34798,-5.6 12.96393,-10 5.61595,-4.4 11.45525,-8.9 12.97623,-10 2.3712,-1.7149 11.81204,-8.81561 14.92076,-11.22232 0.55249,-0.42772 4.24533,-3.21345 8.20631,-6.19051 5.04552,-3.79219 7.38664,-6.25451 7.81922,-8.22402 0.61315,-2.79167 7.59838,-10.53115 12.96339,-14.36315 1.54006,-1.1 5.1889,-3.8 8.10853,-6 12.03531,-9.06883 14.9024,-11.10461 18.66066,-13.25 6.15759,-3.51505 10.56262,-2.49508 7.57673,1.75436 -1.43949,2.04863 -23.16665,19.60473 -25.03204,20.22653 -2.25713,0.75238 0.16091,5.55282 3.91176,7.76588 2.92031,1.72302 4.11569,1.96299 5.49317,1.10275 0.96833,-0.60474 2.63235,-1.09952 3.69782,-1.09952 1.84418,0 21.06904,-14.67825 25.85622,-19.74132 2.42491,-2.56465 2.17347,-3.69094 -1.46926,-6.58126 -3.18879,-2.53014 -2.8762,-4.83378 1.19231,-8.78698 1.91915,-1.86474 3.49415,-3.87716 3.5,-4.47203 0.0194,-1.97315 4.08794,-14.84985 6.06489,-19.19516 1.44856,-3.18392 1.94826,-6.50579 1.95553,-13 0.008,-7.04474 0.46048,-9.68534 2.35211,-13.72325 3.10838,-6.63519 8.85897,-12.36166 16.08208,-16.01465 14.20155,-7.18224 33.33423,-1.73691 49.12158,13.98044 8.15802,8.12183 10.9739,11.89205 14.58962,19.53421 4.83425,10.21762 5.61788,12.48489 6.30224,18.23424 0.37542,3.15383 1.10511,5.99537 1.62154,6.31454 1.7526,1.08317 5.07619,-0.72395 12.75762,-6.93665 4.21489,-3.40899 11.13756,-8.79609 15.38372,-11.97133 6.46635,-4.8355 22.75159,-17.48156 26.27972,-20.40712 0.55,-0.45607 5.05,-3.93258 10,-7.72559 4.95,-3.79301 11.28036,-8.72152 14.06746,-10.95224 2.7871,-2.23072 6.3092,-4.95585 7.82688,-6.05585 1.51768,-1.1 3.802,-2.9 5.07627,-4 1.27427,-1.1 4.63126,-3.575 7.45998,-5.5 2.82872,-1.925 6.36404,-4.45093 7.85627,-5.61317 1.49223,-1.16224 3.83814,-2.46039 5.21314,-2.88478 1.375,-0.42439 2.725,-1.06967 3,-1.43395 0.77945,-1.03253 11.18474,-5.85762 14.25945,-6.61233 1.5177,-0.37253 3.00675,-1.07748 3.30902,-1.56655 0.30226,-0.48907 2.21051,-0.88233 4.24055,-0.87391 2.75124,0.0114 3.30907,0.26212 2.19098,0.98469 -0.825,0.53316 -2.49667,0.97627 -3.71482,0.98469 C 740.06703,218.99311 738.5887,219.9 738,221 c -0.5887,1.1 -1.84203,2.00059 -2.78518,2.00131 -0.94315,7.2e-4 -4.30706,1.80072 -7.47536,4 -3.1683,2.19928 -6.12475,3.99869 -6.56989,3.99869 -0.44515,0 -2.3529,1.39772 -4.23946,3.10604 -1.88656,1.70833 -4.55511,3.84332 -5.93011,4.74444 -1.375,0.90111 -12.235,9.29089 -24.13333,18.64395 -11.89833,9.35307 -27.34064,21.47249 -34.31624,26.93206 C 639.13037,294.92991 636,298.09609 636,301.16624 c 0,2.65228 2.71132,3.40499 4.95406,1.37534 1.51146,-1.36786 2.29602,-1.47811 4.006,-0.56296 1.82309,0.97569 2.97446,0.55917 8.07127,-2.91988 6.04706,-4.12769 8.95741,-6.37122 11.75113,-9.05874 0.8576,-0.825 5.46729,-4.425 10.24374,-8 4.77646,-3.575 10.66207,-8.1609 13.07913,-10.19088 14.98718,-12.58707 41.51887,-32.93288 45.38847,-34.80612 3.84999,-1.86375 6.86447,-2.2995 19.06766,-2.75629 13.99409,-0.52383 14.57675,-0.4655 16.86997,1.68887 1.30639,1.2273 4.10626,2.64042 6.22192,3.14028 5.39522,1.27471 20.03388,-0.0284 24.83842,-2.21103 2.20453,-1.0015 5.04308,-1.83079 6.30789,-1.84287 1.26481,-0.0121 3.6401,-0.71513 5.27841,-1.56233 4.07919,-2.10943 38.14339,-2.22886 43.12117,-0.15118 1.81542,0.75774 5.07778,1.7105 7.24969,2.11726 2.17191,0.40676 4.85954,1.37737 5.97251,2.15692 2.67089,1.87077 5.49459,1.79978 6.24548,-0.15702 0.90973,-2.37073 4.95451,-0.94394 9.58386,3.38069 5.43461,5.0769 13.3085,17.43009 14.69066,23.04791 0.62866,2.55518 1.49594,5.78001 1.92729,7.16628 0.43135,1.38626 0.47518,3.63626 0.0974,5 -0.37779,1.36373 -1.19095,4.59068 -1.80702,7.171 -1.22839,5.14489 -9.22632,17.56115 -14.38719,22.33517 -1.79955,1.66467 -5.52192,4.77643 -8.27192,6.91503 -2.75,2.13859 -5.45,4.39076 -6,5.00482 -0.55,0.61405 -5.05,4.46312 -10,8.55349 -4.95,4.09037 -9.45,7.93132 -10,8.53545 -0.55,0.60413 -3.44876,3.09329 -6.4417,5.53148 -7.87321,6.4139 -15.95851,13.30677 -34.5583,29.46162 -1.65,1.43311 -19.32607,15.60688 -39.28016,31.49728 -19.95409,15.8904 -36.98054,29.59202 -37.83656,30.44803 -0.85602,0.85602 -3.20495,2.77672 -5.21984,4.26822 -4.41907,3.27117 -18.46195,14.45411 -19.16344,15.26066 -0.275,0.31619 -3.425,2.75869 -7,5.42779 -3.575,2.66909 -7.175,5.45721 -8,6.19582 -0.825,0.73861 -5.1,4.30893 -9.5,7.93405 -4.4,3.62511 -9.8,8.09918 -12,9.94237 -2.2,1.84319 -5.68072,4.6216 -7.73493,6.17424 -4.81029,3.63578 -53.48456,43.08423 -55.78342,45.21011 -3.52819,3.26271 -16.71742,12.92491 -21.98137,16.10316 -2.26848,1.36965 -6.34656,4.72401 -9.0624,7.45412 -5.80947,5.84001 -6.43537,9.23252 -2.30302,12.48302 3.30821,2.60224 6.34709,2.62211 11.10396,0.0726 2.05236,-1.1 4.20407,-2 4.78158,-2 0.57751,0 4.32038,-3.39102 8.31749,-7.5356 5.46777,-5.6695 8.92596,-8.29473 13.96479,-10.60114 3.68352,-1.68605 6.92232,-3.36757 7.19732,-3.73671 0.42493,-0.57039 6.26124,-5.56854 14.42362,-12.35221 1.14201,-0.94912 9.05138,-7.64024 17.57638,-14.86916 8.525,-7.22892 17.75,-15.04426 20.5,-17.36741 2.75,-2.32315 8.375,-7.10702 12.5,-10.63084 15.33654,-13.10136 25.38502,-21.56772 32.34408,-27.25157 3.93575,-3.21455 7.51578,-6.47705 7.95561,-7.25 C 725.73952,453.63241 726.72966,453 727.5,453 c 0.77034,0 1.76048,-0.58296 2.20031,-1.29547 0.43983,-0.7125 4.62469,-4.49946 9.29969,-8.41547 11.59497,-9.71249 26.5858,-22.41668 31.85991,-27.00011 2.39795,-2.08392 5.25812,-4.46395 6.35592,-5.28895 1.09781,-0.825 3.63585,-2.9132 5.64009,-4.64045 26.81159,-23.10612 34.36391,-29.35964 35.50263,-29.3971 0.6278,-0.0206 2.94145,-1.62857 5.14145,-3.57317 2.2,-1.94459 8.05,-6.94129 13,-11.10377 8.35153,-7.02284 14.53935,-12.34382 24.87827,-21.39312 2.26695,-1.98418 9.74673,-8.41103 16.62173,-14.28188 14.20776,-12.1326 19,-16.63992 19,-17.87036 0,-0.47086 1.9125,-2.74927 4.25,-5.06312 4.44438,-4.39941 6.47675,-7.19377 10.67482,-14.67703 2.13911,-3.81307 2.51736,-5.73988 2.47788,-12.62235 -0.0701,-12.21736 -5.21153,-22.47796 -17.07906,-34.08399 -2.928,-2.86349 -5.32364,-5.45099 -5.32364,-5.75 0,-1.45106 3.87326,-0.28285 5.65748,1.70634 1.10998,1.2375 5.12863,5.19994 8.93033,8.80542 6.79783,6.44697 12.41219,13.51497 12.41219,15.62589 0,0.59059 0.64607,1.60999 1.43572,2.26534 0.78965,0.65535 1.74866,2.61635 2.13114,4.35778 0.38249,1.74143 1.30321,4.09384 2.04607,5.22757 2.38115,3.6341 3.48226,16.08611 2.49778,28.24648 -0.5022,6.20316 -1.37223,11.83171 -1.93341,12.50788 -0.56117,0.67617 -1.64026,3.02586 -2.39798,5.22152 -3.38732,9.81558 -12.29422,20.54746 -28.21167,33.99212 -3.25579,2.75 -6.85199,5.9 -7.99156,7 -1.13956,1.1 -4.58549,4.025 -7.65762,6.5 -3.07212,2.475 -8.24806,6.81572 -11.50208,9.64604 -7.395,6.43213 -22.1685,19.10959 -29.39125,25.22128 -3.01117,2.54798 -7.51117,6.51622 -10,8.81832 -8.68579,8.03415 -58.58104,53.45334 -65.48337,59.60893 -3.82703,3.41298 -10.59193,9.58043 -15.03311,13.70543 -4.44118,4.125 -13.68498,12.61454 -20.54177,18.86564 -6.85679,6.2511 -15.19525,13.9011 -18.52992,17 -3.33467,3.0989 -9.812,9.00936 -14.39408,13.13436 -20.63201,18.57392 -62.92015,57.58099 -66.54289,61.37994 -9.74475,10.21873 -16.56397,19.63534 -20.72575,28.62006 -6.37866,13.77069 -6.87514,15.97347 -4.40119,19.52749 1.43085,2.05554 8.46532,16.04594 11.55072,22.97251 4.23595,9.50947 8.83768,23.1078 10.49053,31 0.69111,3.3 1.79285,7.61883 2.44831,9.59739 1.81285,5.47222 2.89086,24.59512 2.05034,36.37115 -2.26198,31.69148 -21.42503,53.40491 -49.91296,56.55579 -9.41042,1.04083 -11.28623,1.0347 -24.95872,-0.0816 z M 89.979163,701.25 c 1.64056,-2.6125 2.991386,-5.33585 3.001837,-6.05188 0.01045,-0.71604 0.903606,-2.96604 1.984792,-5 1.081186,-2.03397 4.052216,-7.97312 6.602288,-13.19812 2.55008,-5.225 5.69866,-11.3 6.99687,-13.5 1.2982,-2.2 3.27724,-5.575 4.39785,-7.5 1.12062,-1.925 4.03352,-6.26684 6.47311,-9.64853 2.4396,-3.3817 5.81909,-8.74107 7.50998,-11.90973 3.98935,-7.47588 4.22914,-7.74441 13.05411,-14.61852 4.125,-3.21313 8.46057,-6.62531 9.63461,-7.58263 1.17403,-0.95733 3.37926,-2.64059 4.90052,-3.74059 1.52126,-1.1 6.41068,-4.83417 10.86539,-8.29816 4.45472,-3.46398 10.29561,-7.96398 12.97977,-10 2.68416,-2.03601 5.94077,-4.60184 7.2369,-5.70184 1.29613,-1.1 8.48512,-6.725 15.97553,-12.5 7.49041,-5.775 22.54128,-17.475 33.44637,-26 10.90509,-8.525 23.56997,-18.31152 28.14417,-21.74782 4.57421,-3.4363 10.6595,-8.1613 13.52287,-10.5 2.86338,-2.3387 8.28723,-6.61115 12.05302,-9.49433 3.76578,-2.88319 7.72302,-6.04655 8.79386,-7.0297 1.07085,-0.98316 4.15968,-3.34919 6.86409,-5.25785 2.7044,-1.90867 5.87855,-4.3703 7.05366,-5.4703 1.17512,-1.1 5.23573,-4.475 9.02358,-7.5 3.78786,-3.025 8.71371,-7.10671 10.94634,-9.07048 2.23262,-1.96376 7.49218,-6.12499 11.68791,-9.24718 4.19572,-3.12219 8.92072,-6.94191 10.5,-8.48828 1.57927,-1.54637 4.22141,-3.64642 5.87141,-4.66679 1.65,-1.02036 5.25,-3.73697 8,-6.03691 C 375.93863,434.43278 388.72754,425 389.85755,425 c 0.58892,0 7.72439,-5.30586 15.8566,-11.79081 8.13222,-6.48494 19.73585,-15.57884 25.78585,-20.20867 6.05,-4.62982 11.9,-9.20346 13,-10.16365 1.1,-0.96019 6.33462,-5.12895 11.63249,-9.26391 C 466.19719,365.71751 467,364.70698 467,359.89346 c 0,-2.25841 -0.61224,-3.17574 -2.63208,-3.94368 -1.44765,-0.55039 -3.41761,-0.7514 -4.3777,-0.44667 -1.7367,0.5512 -14.85992,10.45458 -22.49022,16.97214 -2.2,1.87917 -5.87608,4.67849 -8.16907,6.22071 -2.29299,1.54222 -5.8873,4.37904 -7.98737,6.30404 -2.10006,1.925 -5.47367,4.625 -7.49689,6 -2.02323,1.375 -6.58753,5.09355 -10.1429,8.26344 C 396.78591,405.43128 390.51012,410 388.95559,410 388.43002,410 388,410.36025 388,410.80056 388,411.89406 374.41008,423 373.07201,423 372.4824,423 372,423.34638 372,423.76972 c 0,0.42335 -2.1375,2.42972 -4.75,4.4586 -2.6125,2.02887 -9.475,7.3495 -15.25,11.82362 -5.775,4.47411 -12.525,9.88639 -15,12.02729 -2.475,2.14089 -6.78825,5.58639 -9.58499,7.65665 -2.79674,2.07027 -6.62174,4.98429 -8.5,6.4756 -1.87826,1.49132 -6.11501,4.77228 -9.41501,7.29103 -3.3,2.51875 -11.11174,8.49858 -17.35943,13.28852 -6.24768,4.78993 -12.6142,9.60897 -14.14782,10.70897 -1.53362,1.1 -9.83936,7.4 -18.45721,14 -8.61784,6.6 -16.65132,12.66847 -17.85217,13.48548 -1.20086,0.81702 -5.42086,3.96702 -9.37779,7 -3.95693,3.03299 -11.15476,8.43952 -15.99516,12.01452 -4.84041,3.575 -11.97562,8.975 -15.85603,12 -3.88041,3.025 -8.31704,6.4 -9.85919,7.5 -1.54215,1.1 -5.40399,4.025 -8.58188,6.5 -3.17789,2.475 -6.76122,5.175 -7.96295,6 -1.20174,0.825 -7.2481,5.325 -13.43635,10 -6.18826,4.675 -12.4853,9.4 -13.99344,10.5 -5.5293,4.03294 -19.16391,14.38984 -20.63708,15.676 -2.35228,2.05367 -6.93369,4.9053 -12.96852,8.07205 -6.79925,3.56787 -9.00131,5.59069 -14.563782,13.37838 -4.130047,5.78223 -5.459584,8.5817 -9.201006,19.37357 -0.858055,2.475 -2.022415,5.09497 -2.587468,5.82215 -2.351109,3.0257 -5.787766,13.17617 -6.831641,20.17785 -1.327888,8.90667 -1.369168,10.91841 -0.35909,17.5 1.615551,10.52681 5.715591,12.38032 10.50717,4.75 z m 27.813537,-2.44381 c 4.48503,-3.29566 21.39786,-16.49589 27.77914,-21.68123 0.58952,-0.47903 3.96452,-3.04896 7.5,-5.71096 8.12496,-6.11756 21.95778,-16.97146 23.92816,-18.77518 0.825,-0.75521 5.325,-4.2235 10,-7.70729 4.675,-3.48379 14.20169,-10.85607 21.17043,-16.38285 6.96874,-5.52677 20.8336,-16.34868 30.8108,-24.04868 9.97721,-7.7 25.02238,-19.4 33.43371,-26 8.41134,-6.6 17.65712,-13.8 20.54618,-16 8.63457,-6.57517 27.26016,-21.23708 31.42269,-24.73567 2.1361,-1.79538 4.6111,-3.68015 5.5,-4.18837 0.88891,-0.50822 5.66619,-4.11007 10.61619,-8.0041 4.95,-3.89403 10.8,-8.39358 13,-9.99899 2.2,-1.60542 4.7323,-3.62858 5.62733,-4.49591 0.89503,-0.86733 2.90578,-2.47696 4.46835,-3.57696 1.56256,-1.1 6.23026,-4.71198 10.37267,-8.02662 4.14241,-3.31464 10.90665,-8.52856 15.03165,-11.58649 4.125,-3.05793 8.625,-6.53493 10,-7.72667 2.84274,-2.46385 22.25041,-17.63137 26.43587,-20.66022 12.44656,-9.00706 13.91277,-10.83318 13.15934,-16.38957 C 438.26784,440.69616 438,435.16916 438,430.8282 c 0,-7.19978 -0.19163,-7.96354 -2.18289,-8.70015 -2.20597,-0.81604 -3.86155,0.30134 -27.81711,18.77423 -3.025,2.33267 -7.975,6.0819 -11,8.33162 -3.025,2.24973 -6.175,4.69338 -7,5.43035 -2.17057,1.93896 -11.34484,9.09226 -20,15.59426 -13.25725,9.95923 -26.62503,20.20516 -28.08259,21.52432 -0.77957,0.70555 -4.34241,3.39537 -7.91741,5.97738 -3.575,2.582 -6.73851,5.02112 -7.03003,5.42026 -0.29151,0.39914 -3.70301,3.10932 -7.58109,6.02262 -12.59656,9.46279 -40.00213,30.57215 -44.88888,34.57602 -1.1,0.90127 -6.46728,5.03217 -11.92729,9.17978 -26.47517,20.11146 -34.28859,26.10901 -54.11839,41.54111 -5.65387,4.4 -16.19745,12.5 -23.43018,18 -7.23272,5.5 -18.6345,14.29277 -25.33727,19.53949 C 152.98409,637.2862 144.8,643.55365 141.5,645.96716 128.05168,655.80277 116.97465,669.56403 111.69066,683 c -4.2086,10.70151 -4.71098,20 -1.08057,20 0.81142,0 4.04359,-1.88721 7.18261,-4.19381 z m 375.36619,-17.37902 c 2.91583,-4.03681 2.93116,-4.12967 1.73259,-10.5 -0.6651,-3.53494 -1.29206,-8.22717 -1.39325,-10.42717 -0.10119,-2.2 -0.76672,-5.2151 -1.47894,-6.70022 -1.32253,-2.75772 -6.0253,-5.11844 -8.38928,-4.21129 -0.72251,0.27725 -2.90701,-1.25957 -4.85445,-3.41516 C 475.58566,642.64249 465.6075,637 462.55347,637 c -0.66266,0 -2.26172,1.125 -3.55347,2.5 -1.29175,1.375 -2.91304,2.5 -3.60289,2.5 -3.28381,0 -4.19429,2.79263 -3.74549,11.48821 0.53577,10.38059 2.01903,13.27743 11.61117,22.67688 6.6093,6.47652 7.00594,6.69773 14.01947,7.81882 3.96976,0.63455 7.66774,1.32056 8.21774,1.52446 2.55028,0.94547 4.9528,-0.33476 7.65889,-4.0812 z m 22.03305,-33.93532 c 6.66287,-1.36371 10.27568,-3.06383 14.55806,-6.85078 1.96488,-1.73756 2.24718,-2.94969 2.22776,-9.56538 -0.0319,-10.88377 -1.86191,-12.77382 -15.02505,-15.51841 l -7.34437,-1.53135 -7.05417,4.72036 c -3.87979,2.59619 -7.27917,4.95285 -7.55417,5.23703 -0.275,0.28417 -3.01862,2.21154 -6.09694,4.28304 -8.45055,5.68665 -9.83104,10.04999 -4.89592,15.4746 2.6522,2.91526 3.67932,3.30553 10.22068,3.88355 3.9997,0.35342 7.94718,1.03101 8.77218,1.50575 0.825,0.47473 2.4,0.60847 3.5,0.2972 1.1,-0.31128 5.01137,-1.1823 8.69194,-1.93561 z m 33.68518,-91.60635 c 2.40741,-1.03702 5.01349,-1.8855 5.79128,-1.8855 2.30778,0 17.00702,-7.5462 24.69203,-12.67623 3.92676,-2.62126 19.06457,-14.2325 33.63957,-25.80276 14.575,-11.57026 27.625,-21.76612 29,-22.65746 1.375,-0.89135 3.72888,-2.77081 5.23084,-4.17659 1.50197,-1.40577 4.42219,-3.82293 6.48938,-5.37146 4.10627,-3.07598 46.37279,-36.44771 52.70492,-41.6134 2.15883,-1.76116 5.43424,-4.3271 7.27868,-5.7021 4.47757,-3.33795 14.51937,-11.18466 16.33904,-12.76742 1.21713,-1.05866 21.31698,-16.82899 31.28314,-24.54471 1.5543,-1.20333 3.66144,-2.86287 4.68255,-3.68787 1.0211,-0.825 5.91673,-4.65 10.87917,-8.5 4.96245,-3.85 8.91075,-7.45 8.774,-8 -0.23422,-0.94204 -21.25171,-11.6447 -48.16172,-24.52522 -6.6,-3.1591 -18.075,-8.68582 -25.5,-12.2816 -32.96602,-15.9648 -37.13196,-17.78607 -39.18963,-17.13299 -1.13102,0.35897 -6.24986,4.09228 -11.37518,8.29624 -5.12533,4.20396 -10.84116,8.76857 -12.70184,10.14357 -1.86069,1.375 -5.14938,3.92772 -7.30821,5.6727 -4.48943,3.62882 -56.96689,45.33612 -65.73888,52.24702 -3.19755,2.51915 -7.02255,5.61564 -8.5,6.88108 -1.47744,1.26544 -6.06126,4.82047 -10.18626,7.90006 -9.49834,7.09116 -15.9984,13.84613 -16.00558,16.63328 -0.0155,6.02612 -2.0738,9.55682 -8.59759,14.74796 C 520.38653,456.63898 519.64468,457 512.01686,457 l -6.89432,0 -11.81127,9.46877 c -10.11726,8.11072 -12.49574,9.56386 -16.58363,10.13179 -4.93413,0.68551 -11.68041,4.77238 -20.72764,12.55672 -2.475,2.12952 -9.3375,7.70434 -15.25,12.38848 C 427.83786,511.77533 427.11931,514 436.72736,514 c 4.47928,0 20.25606,3.65548 26.45802,6.13033 2.57696,1.02832 5.18915,1.86967 5.80487,1.86967 0.61571,0 3.11979,0.9 5.56461,2 2.44483,1.1 6.58264,2.91535 9.19514,4.0341 2.6125,1.11876 5.425,2.44472 6.25,2.94658 0.825,0.50186 5.49374,3.2205 10.37498,6.04143 4.88124,2.82094 11.05225,6.78248 13.71335,8.80343 2.6611,2.02095 7.1871,5.47446 10.05777,7.67446 2.87068,2.2 5.92467,4.31072 6.78666,4.69048 2.52324,1.11166 13.19503,-0.25915 17.94436,-2.30498 z M 471.93004,415.13073 c 1.19259,-2.22839 -0.18249,-18.78318 -1.68498,-20.28567 -0.94098,-0.94098 -2.25306,-0.31875 -5.9754,2.83367 l -4.76966,4.0394 -0.28613,10.24494 c -0.37553,13.44595 0.37176,14.40734 6.93052,8.91604 2.69979,-2.26039 5.30333,-4.84716 5.78565,-5.74838 z m 39.29938,-29.25351 c 1.78117,-0.95326 17.87674,-13.35767 24.27058,-18.70467 1.1,-0.9199 4.925,-3.87377 8.5,-6.56414 18.12601,-13.64078 18.37764,-13.88419 16.18691,-15.65814 -2.80927,-2.27481 -31.28311,-1.77248 -34.9287,0.6162 -4.87036,3.19118 -6.25821,5.31772 -6.25821,9.58914 0,5.59212 -2.77598,9.02611 -15.32221,18.95411 -5.59778,4.42961 -10.13279,8.46704 -10.07779,8.97206 0.055,0.50502 0.1675,1.59322 0.25,2.41822 0.11879,1.18794 1.72397,1.5 7.71574,1.5 4.16116,0 8.50981,-0.50525 9.66368,-1.12278 z m 298.07229,-27.45186 c 0.47284,-0.84493 2.0104,-1.97373 3.41679,-2.50844 4.10248,-1.55975 17.18508,-12.25808 17.23547,-14.09434 0.0479,-1.74596 -4.39588,-5.82529 -6.33883,-5.81893 -0.61333,0.002 -5.61514,-2.19746 -11.11514,-4.88769 -14.31426,-7.00158 -36.31642,-17.32975 -41.5,-19.48078 -0.825,-0.34235 -2.175,-1.03659 -3,-1.54275 -0.825,-0.50617 -4.2,-2.12012 -7.5,-3.58656 -3.3,-1.46644 -8.25,-3.72624 -11,-5.02178 -2.75,-1.29554 -9.79769,-4.61589 -15.66153,-7.37855 -15.40176,-7.25631 -14.26945,-7.24826 -23.18311,-0.16491 -4.20835,3.34423 -8.21066,6.97568 -8.89401,8.06989 -1.56526,2.50639 -2.24064,2.49008 -7.76135,-0.18745 -9.56815,-4.64053 -10.63782,-5.03962 -12.53925,-4.67843 -1.25315,0.23805 -2.07173,1.32857 -2.26829,3.02182 -0.26021,2.24168 0.16295,2.75269 2.75,3.3209 1.68165,0.36935 3.05754,1.10876 3.05754,1.64312 0,0.53437 1.4625,1.65453 3.25,2.48927 1.7875,0.83473 5.05,2.59496 7.25,3.91163 2.2,1.31666 5.575,3.31545 7.5,4.44175 1.925,1.1263 4.175,2.46528 5,2.97552 0.825,0.51024 3.75,1.92727 6.5,3.14897 2.75,1.22169 10.85,5.03547 18,8.47505 7.15,3.43959 15.1375,7.19284 17.75,8.34056 2.6125,1.14772 6.8875,3.02156 9.5,4.16409 2.6125,1.14253 5.875,2.67028 7.25,3.39501 1.375,0.72473 4.075,1.77927 6,2.34341 1.925,0.56414 5.75,1.91711 8.5,3.00659 2.75,1.08948 7.025,2.78139 9.5,3.75981 2.475,0.97842 5.175,2.32625 6,2.99517 3.36139,2.72545 10.74245,2.63429 12.30171,-0.15195 z m 43.76303,-37.00337 c 0.7203,-0.8679 3.3629,-2.63051 5.87245,-3.91691 C 864.24821,314.78265 875,305.43664 875,303.54246 c 0,-0.71366 0.675,-1.85777 1.5,-2.54246 0.98511,-0.81757 1.5,-3.04874 1.5,-6.5 0,-3.45126 -0.51489,-5.68243 -1.5,-6.5 -0.825,-0.68469 -1.5,-1.81319 -1.5,-2.50779 0,-0.69459 -2.83169,-3.9118 -6.29263,-7.14935 -9.17397,-8.58179 -23.11906,-14.86332 -44.20737,-19.91309 -8.84177,-2.11723 -35.83247,-3.07326 -43.5,-1.5408 -20.98673,4.19448 -29.71776,6.8553 -31.20298,9.50926 -1.26168,2.25448 -6.12677,2.00291 -11.0989,-0.57393 -8.36643,-4.33595 -9.5409,-4.8243 -11.60241,-4.8243 -3.1731,0 -2.86626,4.69179 0.40429,6.18195 1.375,0.6265 2.5,1.51037 2.5,1.96417 0,0.45379 2.03265,1.33691 4.517,1.96248 2.48435,0.62556 4.75299,1.51923 5.04142,1.98592 0.28843,0.4667 2.41828,1.75839 4.733,2.87044 2.31472,1.11205 5.55858,2.92008 7.20858,4.01785 1.65,1.09777 4.125,2.51818 5.5,3.15647 1.375,0.63829 6.1,2.84164 10.5,4.89634 12.55305,5.86199 17.46799,7.96438 18.61902,7.96438 0.58604,0 2.20969,0.9 3.60811,2 1.39842,1.1 3.42342,2 4.5,2 1.07658,0 3.10158,0.9 4.5,2 1.39842,1.1 3.18025,2 3.95961,2 0.77936,0 3.08118,0.84522 5.11514,1.87826 5.55766,2.82271 12.01108,5.64667 18.69812,8.18212 3.3,1.25123 7.07319,3.09951 8.38486,4.10729 1.31167,1.00778 3.33667,1.83896 4.5,1.84707 1.16333,0.008 3.24014,0.63899 4.61514,1.40195 3.42538,1.90069 7.48974,1.90307 9.06474,0.005 z m 34.39414,-87.48852 c -0.92034,-1.48915 0.14673,-2.29879 2.06137,-1.56407 0.88358,0.33906 1.32643,1.06965 0.98412,1.62354 -0.81058,1.31154 -2.21511,1.28411 -3.04549,-0.0595 z M 882.5,230 c -0.33992,-0.55 0.0835,-1 0.94098,-1 0.85746,0 1.55902,0.45 1.55902,1 0,0.55 -0.42344,1 -0.94098,1 -0.51754,0 -1.2191,-0.45 -1.55902,-1 z"
     id="path1" /></svg>
